<?xml version="1.0" encoding="UTF-8"?>
<svg id="Layer_1" data-name="Layer 1" xmlns="http://www.w3.org/2000/svg" xmlns:xlink="http://www.w3.org/1999/xlink" viewBox="0 0 1350.19 307.76">
  <defs>
    <style>
      .cls-1 {
        fill: #d3d2cd;
        stroke: #aeadad;
      }

      .cls-1, .cls-2, .cls-3, .cls-4, .cls-5, .cls-6, .cls-7, .cls-8 {
        stroke-miterlimit: 10;
      }

      .cls-2 {
        stroke: #7a7775;
      }

      .cls-2, .cls-3, .cls-9, .cls-5, .cls-6 {
        fill: none;
      }

      .cls-10 {
        fill: #accbcc;
      }

      .cls-10, .cls-11, .cls-12, .cls-9, .cls-13, .cls-14, .cls-15, .cls-16, .cls-17, .cls-18 {
        stroke-width: 0px;
      }

      .cls-11 {
        fill: #a39f9f;
      }

      .cls-3 {
        stroke: #828282;
      }

      .cls-12 {
        fill: #3a7e3c;
      }

      .cls-19 {
        clip-path: url(#clippath-2);
      }

      .cls-4 {
        fill: #eadaca;
        stroke: #ceb7a5;
      }

      .cls-13 {
        fill: #635c51;
      }

      .cls-14 {
        fill: #726e69;
      }

      .cls-20 {
        clip-path: url(#clippath-1);
      }

      .cls-21 {
        clip-path: url(#clippath-4);
      }

      .cls-5, .cls-7 {
        stroke: #3a7e3c;
      }

      .cls-15 {
        fill: #8e836b;
      }

      .cls-16 {
        fill: #5c6d57;
      }

      .cls-6 {
        stroke: #7e8182;
      }

      .cls-22 {
        clip-path: url(#clippath);
      }

      .cls-7, .cls-18 {
        fill: #55ad57;
      }

      .cls-23 {
        clip-path: url(#clippath-3);
      }

      .cls-17 {
        fill: #7e8182;
      }

      .cls-8 {
        fill: #547391;
        stroke: #60589b;
      }
    </style>
    <clipPath id="clippath">
      <rect class="cls-9" x="96.32" y="58.43" width="174.37" height="117.24"/>
    </clipPath>
    <clipPath id="clippath-1">
      <rect class="cls-9" x="96.32" y="58.43" width="174.37" height="117.24"/>
    </clipPath>
    <clipPath id="clippath-2">
      <rect class="cls-9" x="96.32" y="58.43" width="174.37" height="117.24"/>
    </clipPath>
    <clipPath id="clippath-3">
      <rect class="cls-9" x="96.32" y="58.43" width="174.37" height="117.24"/>
    </clipPath>
    <clipPath id="clippath-4">
      <rect class="cls-9" x="164.53" y="171.46" width="92.28" height="47.16"/>
    </clipPath>
  </defs>
  <path class="cls-16" d="m0,307.76v-112.85c27.04-17.17,86.63-49.83,168.95-53.62,100.77-4.63,174.14,36.83,200.68,53.62,15.9-4.24,71.22-16.89,131.74,10.72,50.56,23.07,76.56,61.37,85.79,76.6,11.51-17.63,26.47-35.71,45.96-52.09,93.03-78.16,218.1-57.52,246.64-52.09,8.56-19.06,26.06-49.58,59.74-70.47,57.6-35.71,138.27-28.22,205.28,18.38,9.79-2.07,107.79-21.25,170.04,42.89,19.5,20.09,29.76,42.45,35.37,59.74v79.15H0Z"/>
  <polygon class="cls-14" points="96.89 118.16 96.82 168.28 183.51 175.13 183.51 103.89 96.89 118.16"/>
  <polygon class="cls-14" points="95.55 118.16 95.48 168.28 182.17 175.13 182.17 103.89 95.55 118.16"/>
  <g class="cls-22">
    <polygon class="cls-2" points="183.51 175.13 96.82 168.28 96.89 118.16 183.51 103.89 183.51 175.13"/>
  </g>
  <polygon class="cls-11" points="183.51 175.13 270.19 169.77 270.19 112.57 183.51 103.89 183.51 175.13"/>
  <g class="cls-20">
    <polygon class="cls-3" points="270.19 169.77 183.51 175.13 183.51 103.89 270.19 112.58 270.19 169.77"/>
  </g>
  <polygon class="cls-14" points="125.36 113.47 125.36 70.7 183.41 59.06 183.51 103.89 125.36 113.47"/>
  <g class="cls-19">
    <polygon class="cls-2" points="125.36 113.47 125.36 70.7 183.41 59.06 183.51 103.89 125.36 113.47"/>
  </g>
  <polygon class="cls-11" points="226.85 108.23 226.85 69.17 183.41 59.06 183.51 103.89 226.85 108.23"/>
  <g class="cls-23">
    <polygon class="cls-3" points="226.85 108.23 226.85 69.17 183.41 59.06 183.51 103.89 226.85 108.23"/>
    <path class="cls-10" d="m229.8,172.26l18.13-1.12v-26.99c-1.53-3.3-4.65-5.56-8.17-5.87-4.11-.37-8.12,1.98-9.96,5.87v28.11Z"/>
    <path class="cls-6" d="m229.8,172.26l18.13-1.12v-26.99c-1.53-3.3-4.65-5.56-8.17-5.87-4.11-.37-8.12,1.98-9.96,5.87v28.11Z"/>
    <line class="cls-6" x1="238.87" y1="138.24" x2="239.41" y2="171.67"/>
    <path class="cls-17" d="m240.82,157.98c0,.35-.11.64-.23.64s-.23-.28-.23-.64.1-.64.23-.64.23.28.23.64"/>
    <path class="cls-17" d="m237.93,157.98c0,.35-.11.64-.23.64s-.23-.28-.23-.64.1-.64.23-.64.23.28.23.64"/>
  </g>
  <g class="cls-21">
    <path class="cls-15" d="m233.1,172.19c5.9,2.4,9.02,5.13,9.38,8.19,1.12,9.56-24.86,22.3-77.96,38.23h28.43c43.39-13.79,64.67-25.74,63.83-35.85-.34-4.07-4.26-7.83-11.75-11.31-3.98.25-7.96.49-11.93.74"/>
  </g>
  <path class="cls-15" d="m164.53,218.61c-2.78.49-4.62,1.53-5.53,3.1-5.45,9.41,22.38,38.09,83.49,86.04h28.2c-62.76-45.9-91.39-74.15-85.91-84.76,1.17-2.26,3.89-3.72,8.17-4.38-9.48,0-18.95,0-28.43,0Z"/>
  <g>
    <g>
      <polyline class="cls-1" points="453.82 100.46 454.75 192.63 438.63 192.63 444.13 100.46"/>
      <path class="cls-1" d="m444.36,101.17c.08.06.16.11.23.15,1.21.76,2.64,1.19,4.16,1.19,1.4,0,2.71-.36,3.84-.99.19-.11.37-.22.55-.35.46-.3.88-.65,1.25-1.04l.04-.04c1.37-1.42,2.21-3.34,2.21-5.46,0-2.7-1.35-5.08-3.42-6.5-1.27-.88-2.81-1.39-4.47-1.39-1,0-1.98.19-2.86.53-.03.02-.05.03-.07.04-2.9,1.16-4.95,4-4.95,7.32v.08c.01.86.15,1.67.42,2.44.01.06.03.12.06.19"/>
      <path class="cls-1" d="m443.47,100.46s-.09-.07-.14-.12"/>
      <path class="cls-1" d="m453.13,87.98c-.48-.42-1.44-1.13-2.84-1.45-2.15-.49-3.89.28-4.49.59-.03.02-.05.03-.07.04v-25.21c0-1.84,2-2.93,3.57-1.98,2.49,1.51,5.6,4.12,7.39,8.36,2.7,6.42,1.3,14.07-3.56,19.65Z"/>
      <path class="cls-1" d="m444.47,101.24c-.23-.16-.57-.44-.99-.78-.04-.04-.09-.07-.14-.12-.63-.54-1.33-1.34-1.79-2.45-.08-.19-.14-.37-.19-.55-.03-.07-.05-.13-.06-.19"/>
    </g>
    <path class="cls-1" d="m454.22,100.37c.52-.37,1.43-1.15,2.05-2.44.96-1.98.6-3.85.44-4.51-.01-.03-.02-.06-.02-.08l24.56,5.68c1.79.41,2.4,2.61,1.12,3.92-2.03,2.09-5.28,4.53-9.81,5.32-6.86,1.18-14-1.9-18.34-7.9Z"/>
    <path class="cls-1" d="m440.82,93.22c-.17.62-.38,1.79-.05,3.19.5,2.15,1.96,3.37,2.5,3.77.03.02.05.03.07.05l-22.65,11.08c-1.65.81-3.51-.51-3.35-2.34.26-2.9,1.24-6.84,4.26-10.31,4.58-5.25,12.07-7.35,19.22-5.44Z"/>
  </g>
  <g>
    <g>
      <polyline class="cls-1" points="496.8 118.06 497.72 210.23 481.6 210.23 487.1 118.06"/>
      <path class="cls-1" d="m487.34,118.77c.08.06.16.11.23.15,1.21.76,2.64,1.19,4.16,1.19,1.4,0,2.71-.36,3.84-.99.19-.11.37-.22.55-.35.46-.3.88-.65,1.25-1.04l.04-.04c1.37-1.42,2.21-3.34,2.21-5.46,0-2.7-1.35-5.08-3.42-6.5-1.27-.88-2.81-1.39-4.47-1.39-1,0-1.98.19-2.86.53-.03.02-.05.03-.07.04-2.9,1.16-4.95,4-4.95,7.32v.08c.01.86.15,1.67.42,2.44.01.06.03.12.06.19"/>
      <path class="cls-1" d="m486.45,118.06s-.09-.07-.14-.12"/>
      <path class="cls-1" d="m496.1,105.58c-.48-.42-1.44-1.13-2.84-1.45-2.15-.49-3.89.28-4.49.59-.03.02-.05.03-.07.04v-25.21c0-1.84,2-2.93,3.57-1.98,2.49,1.51,5.6,4.12,7.39,8.36,2.7,6.42,1.3,14.07-3.56,19.65Z"/>
      <path class="cls-1" d="m487.44,118.84c-.23-.16-.57-.44-.99-.78-.04-.04-.09-.07-.14-.12-.63-.54-1.33-1.34-1.79-2.45-.08-.19-.14-.37-.19-.55-.03-.07-.05-.13-.06-.19"/>
    </g>
    <path class="cls-1" d="m497.19,117.98c.52-.37,1.43-1.15,2.05-2.44.96-1.98.6-3.85.44-4.51-.01-.03-.02-.06-.02-.08l24.56,5.68c1.79.41,2.4,2.61,1.12,3.92-2.03,2.09-5.28,4.53-9.81,5.32-6.86,1.18-14-1.9-18.34-7.9Z"/>
    <path class="cls-1" d="m483.79,110.82c-.17.62-.38,1.79-.05,3.19.5,2.15,1.96,3.37,2.5,3.77.03.02.05.03.07.05l-22.65,11.08c-1.65.81-3.51-.51-3.35-2.34.26-2.9,1.24-6.84,4.26-10.31,4.58-5.25,12.07-7.35,19.22-5.44Z"/>
  </g>
  <g>
    <g>
      <polyline class="cls-1" points="405 120.89 405.92 213.05 389.81 213.05 395.3 120.89"/>
      <path class="cls-1" d="m395.54,121.6c.08.06.16.11.23.15,1.21.76,2.64,1.19,4.16,1.19,1.4,0,2.71-.36,3.84-.99.19-.11.37-.22.55-.35.46-.3.88-.65,1.25-1.04l.04-.04c1.37-1.42,2.21-3.34,2.21-5.46,0-2.7-1.35-5.08-3.42-6.5-1.27-.88-2.81-1.39-4.47-1.39-1,0-1.98.19-2.86.53-.03.02-.05.03-.07.04-2.9,1.16-4.95,4-4.95,7.32v.08c.01.86.15,1.67.42,2.44.01.06.03.12.06.19"/>
      <path class="cls-1" d="m394.65,120.89s-.09-.07-.14-.12"/>
      <path class="cls-1" d="m404.31,108.4c-.48-.42-1.44-1.13-2.84-1.45-2.15-.49-3.89.28-4.49.59-.03.02-.05.03-.07.04v-25.21c0-1.84,2-2.93,3.57-1.98,2.49,1.51,5.6,4.12,7.39,8.36,2.7,6.42,1.3,14.07-3.56,19.65Z"/>
      <path class="cls-1" d="m395.64,121.67c-.23-.16-.57-.44-.99-.78-.04-.04-.09-.07-.14-.12-.63-.54-1.33-1.34-1.79-2.45-.08-.19-.14-.37-.19-.55-.03-.07-.05-.13-.06-.19"/>
    </g>
    <path class="cls-1" d="m405.4,120.8c.52-.37,1.43-1.15,2.05-2.44.96-1.98.6-3.85.44-4.51-.01-.03-.02-.06-.02-.08l24.56,5.68c1.79.41,2.4,2.61,1.12,3.92-2.03,2.09-5.28,4.53-9.81,5.32-6.86,1.18-14-1.9-18.34-7.9Z"/>
    <path class="cls-1" d="m391.99,113.65c-.17.62-.38,1.79-.05,3.19.5,2.15,1.96,3.37,2.5,3.77.03.02.05.03.07.05l-22.65,11.08c-1.65.81-3.51-.51-3.35-2.34.26-2.9,1.24-6.84,4.26-10.31,4.58-5.25,12.07-7.35,19.22-5.44Z"/>
  </g>
  <g>
    <g>
      <polyline class="cls-1" points="1231.46 41.35 1232.38 133.51 1216.27 133.51 1221.76 41.35"/>
      <path class="cls-1" d="m1222,42.06c.08.06.16.11.23.15,1.21.76,2.64,1.19,4.16,1.19,1.4,0,2.71-.36,3.84-.99.19-.11.37-.22.55-.35.46-.3.88-.65,1.25-1.04l.04-.04c1.37-1.42,2.21-3.34,2.21-5.46,0-2.7-1.35-5.08-3.42-6.5-1.27-.88-2.81-1.39-4.47-1.39-1,0-1.98.19-2.86.53-.03.02-.05.03-.07.04-2.9,1.16-4.95,4-4.95,7.32v.08c.01.86.15,1.67.42,2.44.01.06.03.12.06.19"/>
      <path class="cls-1" d="m1221.11,41.35s-.09-.07-.14-.12"/>
      <path class="cls-1" d="m1230.77,28.86c-.48-.42-1.44-1.13-2.84-1.45-2.15-.49-3.89.28-4.49.59-.03.02-.05.03-.07.04V2.83c0-1.84,2-2.93,3.57-1.98,2.49,1.51,5.6,4.12,7.39,8.36,2.7,6.42,1.3,14.07-3.56,19.65Z"/>
      <path class="cls-1" d="m1222.1,42.13c-.23-.16-.57-.44-.99-.78-.04-.04-.09-.07-.14-.12-.63-.54-1.33-1.34-1.79-2.45-.08-.19-.14-.37-.19-.55-.03-.07-.05-.13-.06-.19"/>
    </g>
    <path class="cls-1" d="m1231.86,41.26c.52-.37,1.43-1.15,2.05-2.44.96-1.98.6-3.85.44-4.51-.01-.03-.02-.06-.02-.08l24.56,5.68c1.79.41,2.4,2.61,1.12,3.92-2.03,2.09-5.28,4.53-9.81,5.32-6.86,1.18-14-1.9-18.34-7.9Z"/>
    <path class="cls-1" d="m1218.45,34.11c-.17.62-.38,1.79-.05,3.19.5,2.15,1.96,3.37,2.5,3.77.03.02.05.03.07.05l-22.65,11.08c-1.65.81-3.51-.51-3.35-2.34.26-2.9,1.24-6.84,4.26-10.31,4.58-5.25,12.07-7.35,19.22-5.44Z"/>
  </g>
  <g>
    <g>
      <polyline class="cls-1" points="1274.43 58.95 1275.36 151.11 1259.24 151.11 1264.73 58.95"/>
      <path class="cls-1" d="m1264.97,59.66c.08.06.16.11.23.15,1.21.76,2.64,1.19,4.16,1.19,1.4,0,2.71-.36,3.84-.99.19-.11.37-.22.55-.35.46-.3.88-.65,1.25-1.04l.04-.04c1.37-1.42,2.21-3.34,2.21-5.46,0-2.7-1.35-5.08-3.42-6.5-1.27-.88-2.81-1.39-4.47-1.39-1,0-1.98.19-2.86.53-.03.02-.05.03-.07.04-2.9,1.16-4.95,4-4.95,7.32v.08c.01.86.15,1.67.42,2.44.01.06.03.12.06.19"/>
      <path class="cls-1" d="m1264.08,58.95s-.09-.07-.14-.12"/>
      <path class="cls-1" d="m1273.74,46.46c-.48-.42-1.44-1.13-2.84-1.45-2.15-.49-3.89.28-4.49.59-.03.02-.05.03-.07.04v-25.21c0-1.84,2-2.93,3.57-1.98,2.49,1.51,5.6,4.12,7.39,8.36,2.7,6.42,1.3,14.07-3.56,19.65Z"/>
      <path class="cls-1" d="m1265.07,59.73c-.23-.16-.57-.44-.99-.78-.04-.04-.09-.07-.14-.12-.63-.54-1.33-1.34-1.79-2.45-.08-.19-.14-.37-.19-.55-.03-.07-.05-.13-.06-.19"/>
    </g>
    <path class="cls-1" d="m1274.83,58.86c.52-.37,1.43-1.15,2.05-2.44.96-1.98.6-3.85.44-4.51-.01-.03-.02-.06-.02-.08l24.56,5.68c1.79.41,2.4,2.61,1.12,3.92-2.03,2.09-5.28,4.53-9.81,5.32-6.86,1.18-14-1.9-18.34-7.9Z"/>
    <path class="cls-1" d="m1261.42,51.71c-.17.62-.38,1.79-.05,3.19.5,2.15,1.96,3.37,2.5,3.77.03.02.05.03.07.05l-22.65,11.08c-1.65.81-3.51-.51-3.35-2.34.26-2.9,1.24-6.84,4.26-10.31,4.58-5.25,12.07-7.35,19.22-5.44Z"/>
  </g>
  <g>
    <g>
      <polyline class="cls-1" points="1182.63 61.77 1183.56 153.93 1167.44 153.93 1172.94 61.77"/>
      <path class="cls-1" d="m1173.17,62.48c.08.06.16.11.23.15,1.21.76,2.64,1.19,4.16,1.19,1.4,0,2.71-.36,3.84-.99.19-.11.37-.22.55-.35.46-.3.88-.65,1.25-1.04l.04-.04c1.37-1.42,2.21-3.34,2.21-5.46,0-2.7-1.35-5.08-3.42-6.5-1.27-.88-2.81-1.39-4.47-1.39-1,0-1.98.19-2.86.53-.03.02-.05.03-.07.04-2.9,1.16-4.95,4-4.95,7.32v.08c.01.86.15,1.67.42,2.44.01.06.03.12.06.19"/>
      <path class="cls-1" d="m1172.28,61.77s-.09-.07-.14-.12"/>
      <path class="cls-1" d="m1181.94,49.28c-.48-.42-1.44-1.13-2.84-1.45-2.15-.49-3.89.28-4.49.59-.03.02-.05.03-.07.04v-25.21c0-1.84,2-2.93,3.57-1.98,2.49,1.51,5.6,4.12,7.39,8.36,2.7,6.42,1.3,14.07-3.56,19.65Z"/>
      <path class="cls-1" d="m1173.27,62.55c-.23-.16-.57-.44-.99-.78-.04-.04-.09-.07-.14-.12-.63-.54-1.33-1.34-1.79-2.45-.08-.19-.14-.37-.19-.55-.03-.07-.05-.13-.06-.19"/>
    </g>
    <path class="cls-1" d="m1183.03,61.68c.52-.37,1.43-1.15,2.05-2.44.96-1.98.6-3.85.44-4.51-.01-.03-.02-.06-.02-.08l24.56,5.68c1.79.41,2.4,2.61,1.12,3.92-2.03,2.09-5.28,4.53-9.81,5.32-6.86,1.18-14-1.9-18.34-7.9Z"/>
    <path class="cls-1" d="m1169.63,54.53c-.17.62-.38,1.79-.05,3.19.5,2.15,1.96,3.37,2.5,3.77.03.02.05.03.07.05l-22.65,11.08c-1.65.81-3.51-.51-3.35-2.34.26-2.9,1.24-6.84,4.26-10.31,4.58-5.25,12.07-7.35,19.22-5.44Z"/>
  </g>
  <g>
    <path class="cls-13" d="m797.29,190.76c10.21-.08,20.42-.17,30.63-.25-3.51-11.4-6.87-25.24-8.89-41.15-2.17-17.09-2.27-32.29-1.55-44.83h-10.17c1.27,11.8,1.83,27.03-.28,44.54-2.02,16.73-5.91,30.82-9.74,41.68Z"/>
    <circle class="cls-12" cx="812.6" cy="85.83" r="32"/>
  </g>
  <g>
    <path class="cls-13" d="m795.58,189.97c-1.15.01-2.3.02-3.45.03-4.92,0-7.57.02-12.74-.14,1.75-5.73,2.56-17.32,3.5-25.07,1.28-10.65.94-19.9.17-27.07h6.18c-.44,7.62-.38,16.85.94,27.24,1.23,9.67,3.27,18.08,5.4,25.01Z"/>
    <circle class="cls-18" cx="786.27" cy="126.36" r="19.45"/>
  </g>
  <g>
    <path class="cls-13" d="m733.29,205.77c10.21-.08,20.42-.17,30.63-.25-3.51-11.4-6.87-25.24-8.89-41.15-2.17-17.09-2.27-32.29-1.55-44.83h-10.17c1.27,11.8,1.83,27.03-.28,44.54-2.02,16.73-5.91,30.82-9.74,41.68Z"/>
    <circle class="cls-12" cx="748.6" cy="100.84" r="32"/>
  </g>
  <g>
    <path class="cls-13" d="m731.58,204.98c-1.15.01-2.3.02-3.45.03-4.92,0-7.57.02-12.74-.14,1.75-5.73,2.56-17.32,3.5-25.07,1.28-10.65.94-19.9.17-27.07h6.18c-.44,7.62-.38,16.85.94,27.24,1.23,9.67,3.27,18.08,5.4,25.01Z"/>
    <circle class="cls-18" cx="722.27" cy="141.36" r="19.45"/>
  </g>
  <g>
    <path class="cls-13" d="m891.92,210.58c-10.21-.08-20.42-.17-30.63-.25,3.51-11.4,6.87-25.24,8.89-41.15,2.17-17.09,2.27-32.29,1.55-44.83h10.17c-1.27,11.8-1.83,27.03.28,44.54,2.02,16.73,5.91,30.82,9.74,41.68Z"/>
    <circle class="cls-12" cx="876.6" cy="105.65" r="32"/>
  </g>
  <g>
    <path class="cls-13" d="m893.63,209.8c1.15.01,2.3.02,3.45.03,4.92,0,7.57.02,12.74-.14-1.75-5.73-2.56-17.32-3.5-25.07-1.28-10.65-.94-19.9-.17-27.07h-6.18c.44,7.62.38,16.85-.94,27.24-1.23,9.67-3.27,18.08-5.4,25.01Z"/>
    <circle class="cls-18" cx="902.94" cy="146.18" r="19.45"/>
  </g>
  <g>
    <path class="cls-13" d="m840.47,253.92c-10.21-.08-20.42-.17-30.63-.25,3.51-11.4,6.87-25.24,8.89-41.15,2.17-17.09,2.27-32.29,1.55-44.83h10.17c-1.27,11.8-1.83,27.03.28,44.54,2.02,16.73,5.91,30.82,9.74,41.68Z"/>
    <circle class="cls-12" cx="825.16" cy="148.99" r="32"/>
  </g>
  <g>
    <path class="cls-13" d="m842.19,253.13c1.15.01,2.3.02,3.45.03,4.92,0,7.57.02,12.74-.14-1.75-5.73-2.56-17.32-3.5-25.07-1.28-10.65-.94-19.9-.17-27.07h-6.18c.44,7.62.38,16.85-.94,27.24-1.23,9.67-3.27,18.08-5.4,25.01Z"/>
    <circle class="cls-18" cx="851.49" cy="189.51" r="19.45"/>
  </g>
  <g>
    <path class="cls-13" d="m796.18,250.47c-1.15.01-2.3.02-3.45.03-4.92,0-7.57.02-12.74-.14,1.75-5.73,2.56-17.32,3.5-25.07,1.28-10.65.94-19.9.17-27.07h6.18c-.44,7.62-.38,16.85.94,27.24,1.23,9.67,3.27,18.08,5.4,25.01Z"/>
    <circle class="cls-18" cx="786.88" cy="186.86" r="19.45"/>
  </g>
  <g>
    <path class="cls-13" d="m765.37,271.54c-10.21-.08-20.42-.17-30.63-.25,3.51-11.4,6.87-25.24,8.89-41.15,2.17-17.09,2.27-32.29,1.55-44.83h10.17c-1.27,11.8-1.83,27.03.28,44.54,2.02,16.73,5.91,30.82,9.74,41.68Z"/>
    <circle class="cls-12" cx="750.06" cy="166.62" r="32"/>
  </g>
  <g>
    <path class="cls-13" d="m997.87,154.8c10.21-.08,20.42-.17,30.63-.25-3.51-11.4-6.87-25.24-8.89-41.15-2.17-17.09-2.27-32.29-1.55-44.83h-10.17c1.27,11.8,1.83,27.03-.28,44.54-2.02,16.73-5.91,30.82-9.74,41.68Z"/>
    <circle class="cls-12" cx="1013.19" cy="49.88" r="32"/>
  </g>
  <g>
    <path class="cls-13" d="m996.16,154.02c-1.15.01-2.3.02-3.45.03-4.92,0-7.57.02-12.74-.14,1.75-5.73,2.56-17.32,3.5-25.07,1.28-10.65.94-19.9.17-27.07h6.18c-.44,7.62-.38,16.85.94,27.24,1.23,9.67,3.27,18.08,5.4,25.01Z"/>
    <circle class="cls-18" cx="986.86" cy="90.4" r="19.45"/>
  </g>
  <g>
    <path class="cls-13" d="m933.87,169.81c10.21-.08,20.42-.17,30.63-.25-3.51-11.4-6.87-25.24-8.89-41.15-2.17-17.09-2.27-32.29-1.55-44.83h-10.17c1.27,11.8,1.83,27.03-.28,44.54-2.02,16.73-5.91,30.82-9.74,41.68Z"/>
    <circle class="cls-12" cx="949.19" cy="64.88" r="32"/>
  </g>
  <g>
    <path class="cls-13" d="m932.16,169.02c-1.15.01-2.3.02-3.45.03-4.92,0-7.57.02-12.74-.14,1.75-5.73,2.56-17.32,3.5-25.07,1.28-10.65.94-19.9.17-27.07h6.18c-.44,7.62-.38,16.85.94,27.24,1.23,9.67,3.27,18.08,5.4,25.01Z"/>
    <circle class="cls-18" cx="922.86" cy="105.41" r="19.45"/>
  </g>
  <g>
    <path class="cls-13" d="m1092.5,174.63c-10.21-.08-20.42-.17-30.63-.25,3.51-11.4,6.87-25.24,8.89-41.15,2.17-17.09,2.27-32.29,1.55-44.83h10.17c-1.27,11.8-1.83,27.03.28,44.54,2.02,16.73,5.91,30.82,9.74,41.68Z"/>
    <circle class="cls-12" cx="1077.19" cy="69.7" r="32"/>
  </g>
  <g>
    <path class="cls-13" d="m1094.21,173.84c1.15.01,2.3.02,3.45.03,4.92,0,7.57.02,12.74-.14-1.75-5.73-2.56-17.32-3.5-25.07-1.28-10.65-.94-19.9-.17-27.07h-6.18c.44,7.62.38,16.85-.94,27.24-1.23,9.67-3.27,18.08-5.4,25.01Z"/>
    <circle class="cls-18" cx="1103.52" cy="110.22" r="19.45"/>
  </g>
  <g>
    <path class="cls-13" d="m1041.05,217.96c-10.21-.08-20.42-.17-30.63-.25,3.51-11.4,6.87-25.24,8.89-41.15,2.17-17.09,2.27-32.29,1.55-44.83h10.17c-1.27,11.8-1.83,27.03.28,44.54,2.02,16.73,5.91,30.82,9.74,41.68Z"/>
    <circle class="cls-12" cx="1025.74" cy="113.03" r="32"/>
  </g>
  <g>
    <path class="cls-13" d="m965.95,235.59c-10.21-.08-20.42-.17-30.63-.25,3.51-11.4,6.87-25.24,8.89-41.15,2.17-17.09,2.27-32.29,1.55-44.83h10.17c-1.27,11.8-1.83,27.03.28,44.54,2.02,16.73,5.91,30.82,9.74,41.68Z"/>
    <circle class="cls-12" cx="950.64" cy="130.66" r="32"/>
  </g>
  <g>
    <path class="cls-13" d="m692.39,246.03c10.21-.08,20.42-.17,30.63-.25-3.51-11.4-6.87-25.24-8.89-41.15-2.17-17.09-2.27-32.29-1.55-44.83h-10.17c1.27,11.8,1.83,27.03-.28,44.54-2.02,16.73-5.91,30.82-9.74,41.68Z"/>
    <circle class="cls-12" cx="707.71" cy="141.1" r="32"/>
  </g>
  <g>
    <path class="cls-13" d="m690.68,245.24c-1.15.01-2.3.02-3.45.03-4.92,0-7.57.02-12.74-.14,1.75-5.73,2.56-17.32,3.5-25.07,1.28-10.65.94-19.9.17-27.07h6.18c-.44,7.62-.38,16.85.94,27.24,1.23,9.67,3.27,18.08,5.4,25.01Z"/>
    <circle class="cls-18" cx="681.38" cy="181.63" r="19.45"/>
  </g>
  <g>
    <path class="cls-13" d="m628.39,261.04c10.21-.08,20.42-.17,30.63-.25-3.51-11.4-6.87-25.24-8.89-41.15-2.17-17.09-2.27-32.29-1.55-44.83h-10.17c1.27,11.8,1.83,27.03-.28,44.54-2.02,16.73-5.91,30.82-9.74,41.68Z"/>
    <circle class="cls-12" cx="643.71" cy="156.11" r="32"/>
  </g>
  <g>
    <path class="cls-13" d="m623.2,263.73c-1.15.01-2.3.02-3.45.03-4.92,0-7.57.02-12.74-.14,1.75-5.73,2.56-17.32,3.5-25.07,1.28-10.65.94-19.9.17-27.07h6.18c-.44,7.62-.38,16.85.94,27.24,1.23,9.67,3.27,18.08,5.4,25.01Z"/>
    <circle class="cls-18" cx="613.9" cy="200.11" r="19.45"/>
  </g>
  <g>
    <path class="cls-13" d="m787.02,265.85c-10.21-.08-20.42-.17-30.63-.25,3.51-11.4,6.87-25.24,8.89-41.15,2.17-17.09,2.27-32.29,1.55-44.83h10.17c-1.27,11.8-1.83,27.03.28,44.54,2.02,16.73,5.91,30.82,9.74,41.68Z"/>
    <circle class="cls-12" cx="771.71" cy="160.92" r="32"/>
  </g>
  <g>
    <path class="cls-13" d="m788.74,265.07c1.15.01,2.3.02,3.45.03,4.92,0,7.57.02,12.74-.14-1.75-5.73-2.56-17.32-3.5-25.07-1.28-10.65-.94-19.9-.17-27.07h-6.18c.44,7.62.38,16.85-.94,27.24-1.23,9.67-3.27,18.08-5.4,25.01Z"/>
    <circle class="cls-18" cx="798.04" cy="201.45" r="19.45"/>
  </g>
  <g>
    <path class="cls-13" d="m703.58,302.6c-10.21-.08-20.42-.17-30.63-.25,3.51-11.4,6.87-25.24,8.89-41.15,2.17-17.09,2.27-32.29,1.55-44.83h10.17c-1.27,11.8-1.83,27.03.28,44.54,2.02,16.73,5.91,30.82,9.74,41.68Z"/>
    <circle class="cls-12" cx="688.26" cy="197.68" r="32"/>
  </g>
  <g>
    <path class="cls-13" d="m39.71,212.91c10.21-.08,20.42-.17,30.63-.25-3.51-11.4-6.87-25.24-8.89-41.15-2.17-17.09-2.27-32.29-1.55-44.83h-10.17c1.27,11.8,1.83,27.03-.28,44.54-2.02,16.73-5.91,30.82-9.74,41.68Z"/>
    <circle class="cls-12" cx="55.02" cy="107.98" r="32"/>
  </g>
  <g>
    <path class="cls-13" d="m34.52,215.6c-1.15.01-2.3.02-3.45.03-4.92,0-7.57.02-12.74-.14,1.75-5.73,2.56-17.32,3.5-25.07,1.28-10.65.94-19.9.17-27.07h6.18c-.44,7.62-.38,16.85.94,27.24,1.23,9.67,3.27,18.08,5.4,25.01Z"/>
    <circle class="cls-18" cx="25.22" cy="151.98" r="19.45"/>
  </g>
  <polygon class="cls-10" points="113.55 141.18 98.86 141.43 98.86 119.6 113.55 117.05 113.55 141.18"/>
  <polygon class="cls-10" points="139.15 140.85 122.55 141.15 122.55 115.8 138.76 113.04 139.15 140.85"/>
  <polygon class="cls-10" points="165.2 140.14 148.61 140.46 148.15 111.11 164.28 108.52 165.2 140.14"/>
  <g>
    <g>
      <g>
        <path class="cls-4" d="m196.89,97.71c-1.98-2.14-4.05-4.57-6.31-6.71-.22-.2-.43-.41-.65-.61-.4-.37-.62-.88-.59-1.4l.36-7.74c.38-.63,1.12-1,1.89-.93.7.06,1.32.48,1.61,1.09-.03,1.55-.06,3.1-.08,4.64,3.34,1.77,10.92,6.21,10.34,10.9-.02.16.01.9-.03,1.06-2.14,0-4.39-.3-6.53-.3Z"/>
        <path class="cls-4" d="m196.12,92.5c-.9-.72-1.87-1.59-2.83-2.63-.56-.6-1.05-1.19-1.49-1.75-.55-.69-.45-1.54.06-1.92.48-.35,1.16-.17,1.24-.15"/>
      </g>
      <path class="cls-8" d="m195.2,97.66c.2,0,9.52.38,9.52.38l-.19,4.06-9.51-.59.18-3.85Z"/>
      <g>
        <path class="cls-4" d="m215.05,98.54c2.16-1.95,4.45-4.18,6.9-6.1.23-.18.47-.37.7-.55.43-.34.69-.82.72-1.34l.36-7.74c-.32-.66-1.03-1.1-1.8-1.1-.7,0-1.36.36-1.7.93-.11,1.54-.23,3.09-.34,4.63-3.49,1.46-11.44,5.18-11.29,9.91,0,.16-.09.89-.07,1.05,2.13.2,4.4.1,6.53.3Z"/>
        <path class="cls-4" d="m216.29,93.43c.96-.64,2.01-1.41,3.06-2.36.61-.55,1.15-1.09,1.64-1.61.61-.63.59-1.49.11-1.91-.45-.4-1.14-.28-1.22-.26"/>
      </g>
      <path class="cls-8" d="m216.73,98.65c-.2,0-9.52-.5-9.52-.5l-.19,4.06,9.53.28.18-3.85Z"/>
      <path class="cls-7" d="m206.49,87.14c4.52-2.06,7.67-5.21,7.39-8.21-.16-1.73-1.47-3.37-2.91-5.17-1.39-1.74-2.81-2.98-3.82-3.78-1.09.61-2.64,1.62-4.14,3.21-1.26,1.33-3.15,3.34-3.32,5.69-.22,3.1,2.6,6.33,6.8,8.26Z"/>
    </g>
    <polyline class="cls-5" points="204.22 77.3 206.86 79.15 209.46 77.54"/>
    <polyline class="cls-5" points="203.3 80.41 206.68 83.1 209.77 80.71"/>
    <line class="cls-5" x1="206.38" y1="89.59" x2="207.07" y2="74.63"/>
  </g>
</svg>