<?xml version="1.0" encoding="UTF-8"?>
<svg id="Layer_1" data-name="Layer 1" xmlns="http://www.w3.org/2000/svg" xmlns:xlink="http://www.w3.org/1999/xlink" viewBox="0 0 1350.19 715.39">
  <defs>
    <style>
      .cls-1 {
        fill: url(#linear-gradient);
      }

      .cls-1, .cls-2 {
        stroke-width: 0px;
      }

      .cls-2 {
        fill: #efede6;
      }

      .cls-3 {
        fill: none;
        stroke: #756653;
        stroke-miterlimit: 10;
      }
    </style>
    <linearGradient id="linear-gradient" x1="673.37" y1="398.88" x2="675.46" y2="6" gradientUnits="userSpaceOnUse">
      <stop offset="0" stop-color="#fff"/>
      <stop offset=".13" stop-color="#d9e6da"/>
      <stop offset=".35" stop-color="#a1c1a2"/>
      <stop offset=".56" stop-color="#74a476"/>
      <stop offset=".74" stop-color="#548f56"/>
      <stop offset=".9" stop-color="#418242"/>
      <stop offset="1" stop-color="#3a7e3c"/>
    </linearGradient>
  </defs>
  <path class="cls-2" d="m829.35,440.26c1.88.18,4.76.28,8.15-.35,4-.74,14.42-3.55,31.4-27.19,10.23-14.24,8.49-16.07,15.83-22.85,3.59-3.31,11.87-10.77,24.64-12.89,4.86-.81,8.99-.61,11.79-.3,1.61.48,4,1.46,5.95,3.62,2.22,2.46,2.88,5.35,3.32,10.09.72,7.66,1.3,13.91-.83,22.56-1.39,5.63-3.26,9.54-5.08,13.29-2.86,5.9-8.63,17.49-20.76,28.24-7.38,6.53-14.5,10.25-19.19,12.69-3.11,1.62-4.63,2.21-15.28,6.89,0,0-4.75,2.08-19.22,8.51-22.22,9.87-25.92,11.77-29.16,16.34-3.51,4.95-4.87,10.08-5.47,13.67,2.2,13.32,4.4,26.63,6.6,39.95,1.81-.87,4.91-2.67,7.18-6.13,1.25-1.91,2.32-4.44,2.8-9.71.82-8.99-1.45-10.87-1.02-17.36.58-8.78,5.38-15.09,6.77-16.85,4.54-5.79,9.81-8.19,15.96-10.98,4.81-2.18,19.98-9.07,29.12-5.72.99.36,4.01,1.62,6.61.33,1.64-.81,2.5-2.33,3.23-3.61.68-1.2,1.76-3.51,1.89-6.83,6.38-2.64,28.42-12.69,41.62-37.79,11.03-20.97,9.69-40.68,8.81-48.12-.14-3.67-.87-9.95-4.34-16.73-1.81-3.53-5.34-10.44-13.15-14.68-10.66-5.8-21.79-2.55-25.66-1.41-6.99,2.04-11.92,5.6-14.68,7.92-18.14,17.82-27.1,28.94-31.92,36-1.78,2.61-3.87,5.93-7.79,11.11-6.04,7.97-8.98,10.5-12.64,16.6-2.77,4.62-4.45,8.78-5.46,11.71Z"/>
  <path class="cls-2" d="m539.99,546.46c-23.42,5.42-42.07,11.28-55.42,15.94-10.47,3.65-16.7,6.43-29.15,11.98,0,0-12.11,5.39-25.16,14.81-2.53,1.83-6.59,4.89-9.39,10.3-.92,1.77-2.67,5.14-2.72,9.45-.1,7.61,5.17,13.14,9.02,17.19,4.7,4.94,9.08,7.39,17.19,11.91,1.84,1.03,8.21,4.53,17.16,8.26,8.39,3.5,11.02,3.84,17.28,7.16,5.83,3.09,9.7,6.04,11.18,7.13,6.52,4.79,19.72,12.45,48.98,25.06,28.55,12.11,76.46,28.2,137.57,29.19,69.95,1.13,124.18-18.05,153.86-31.08,21.25-12.67,38.91-21.68,51.43-27.68,9.24-4.43,17.68-9.59,34.55-19.91,8.62-5.27,18.13-11.34,22.3-22.72,1.04-2.84,2.04-5.59,1.87-9.11-.73-15.19-22.35-25.38-37.7-32.62-13.3-6.27-24.47-9.41-40.25-13.77-13.28-3.67-24.44-6.11-32.19-7.67-1.05-.6-2.46-1.16-3.91-.8-2.21.55-2.86,2.82-3.82,2.7-2-.26-2.12-9.25-2.12-9.25,0-13.54-3.48-12.56-5.09-30.37-.65-7.15-1.62-18.7.75-33.08,2.07-12.6,5.73-21.42,10.47-32.85,0,0,5.65-13.62,15.66-31.11,2.4-4.2,3.6-6.29,5.33-8.88,2.86-4.28,4.39-5.9,6.7-10.04,2.5-4.46,3.73-6.75,3.2-9.29-.29-1.4-1.22-3.45-5.79-6.38-4.85-3.11-9.43-4.4-18.81-6.29-6.13-1.24-9.25-1.71-16.85-3.07-7.72-1.39-12.21-2.29-15.06-2.82-15.4-2.9-33.43-4.74-40.75-5.49-41.11-4.19-78.65-4.2-78.65-4.2-25.71,0-42.87,3.87-75.76,3.87,0,0-23.45,1.63-64.87,9.53-22.75,4.34-35.7,7.89-37.59,15.84-1.23,5.16,2.97,8.98,8.68,17.27,6.13,8.89,11.41,24.04,21.96,54.32,7.47,21.44,11.2,32.35,10.87,42.06-.21,6.32-1.5,17.62-2.19,23.69-.99,8.68-2,15.85-2.75,20.83Z"/>
  <path class="cls-3" d="m539.99,546.46c-12.26,2.83-122.04,28.76-121.85,62.47.2,33.97,108.52,58.9,129.19,63.66,12.01,2.77,49.94,10.99,133.79,11.4,144.44.71,202.95-22.88,238.98-50.04,11.45-8.63,20.92-17.84,20.43-28.6-1.46-31.71-90.64-51.16-114.06-55.88"/>
  <path class="cls-3" d="m478.79,653.47c27.25,18.05,101.17,61.85,205.13,61.43,99.79-.4,171.12-41.32,198.77-59.22"/>
  <path class="cls-3" d="m526.65,379.15c-9.4,2.25-15.81,6.09-15.57,9.26.25,3.35,7.98,6.47,10.6,7.53,1.96.79,3.69,1.28,4.98,1.6,42.95,7.4,94.43,13.11,152.68,13.28,60.53.18,113.87-5.67,158.04-13.28,1.47-.38,3.68-1.13,6.38-2.17,1.91-.74,6.9-3.63,7.15-6.77.27-3.4-5.11-7.64-13.53-9.45-43.63-7.36-95.99-13.01-155.23-13.02-59.36,0-111.8,5.65-155.49,13.02Z"/>
  <path class="cls-3" d="m519.34,376.95c-9.82,3.09-16.5,8.36-16.26,12.71.26,4.6,8.32,8.89,11.06,10.34,2.05,1.09,3.85,1.76,5.2,2.19,44.83,10.16,98.57,18,159.36,18.23,63.18.24,118.86-7.79,164.96-18.23,1.63-.37,4.04-1.16,6.66-2.98,1.89-1.31,7.2-4.99,7.46-9.29.29-4.67-5.34-10.49-14.12-12.97-45.54-10.11-100.19-17.87-162.03-17.88-61.95-.01-116.7,7.76-162.3,17.88Z"/>
  <path class="cls-3" d="m595.33,629.62c-.34,2.55-1.14,6.33-3.23,10.38-2.51,4.85-4.74,5.97-5.45,8.85-.47,1.91-.25,4.53,2.04,8.1,2.94,4.6,7.54,7.89,12.75,9.52,17.21,5.4,40.42,10.64,68.11,11.4,33.62.92,61.49-5.12,80.93-11.13,5.93-1.83,11.13-5.59,14.48-10.81,2.54-3.96,2.71-6.69,2.13-8.62-.74-2.43-2.66-3.54-4.17-7.53-1.51-4-1.26-9.48-.96-11.91"/>
  <path class="cls-3" d="m594.08,627.49c2.33,3.83,6.81,9.92,14.53,14.12,3.55,1.93,6.63,2.83,9.94,3.78,9.61,2.76,17.41,3.16,21.38,3.36,32.6,1.72,29.58,2.63,41.87,2.38,4.32-.09,14.9-.41,28.26-2.04,4.44-.54,7.53-1.03,11.16-1.6,16.09-2.53,22.19-4.45,26.97-6.4,5.34-2.18,8.62-4.23,11.06-7.66,1.69-2.38,2.49-4.73,2.9-6.33"/>
  <path class="cls-3" d="m588.69,656.95c-2.84.48-9.99,2.07-16.21,8.16-4.14,4.05-6.15,8.42-7.12,11.04"/>
  <path class="cls-3" d="m763.76,657.62c11.63,2.02,20.35,8.11,21.79,15.78.28,1.49.35,3.41-.23,5.74"/>
  <path class="cls-3" d="m503.08,389.66c15.07,27.66,24.76,51.63,30.97,69.15,10.65,30.05,10.9,40.67,10.89,44.6,0,5.69-.54,4.34-5.45,47.32,0,0-2.12,18.6,3.4,33.7.88,2.41,2.22,5.95,5.45,9.19,2.68,2.69,4.52,3.02,7.83,5.79,4.17,3.48,6.14,7.02,7.23,8.66,2.91,4.35,9.64,10.22,26.64,16.53,3.6,2.72,8.93,6.4,15.83,9.87,11.56,5.82,25.72,10.16,77.11,9.36,47.47-.74,62.2-4.86,75.4-13.96,3.6-2.48,7.8-5.7,9.61-7.35"/>
  <path class="cls-3" d="m519.76,416.59c15.17,23.15,22.48,44.21,26.21,58.21,3.33,12.51,6.56,24.65,6.13,41.02-.27,10.21-1.73,13.08-2.38,30.81-.7,19.07.59,27.26,1.02,29.96,1.73,10.79,4.99,19.25,7.4,24.59"/>
  <path class="cls-3" d="m578.28,619.54c5.51,2.56,13.68,5.58,23.94,6.76,13.66,1.57,24.8-.83,31.4-2.81,9.22,3.6,23.3,7.83,40.85,8.43,21.86.74,39.18-4.49,49.28-8.43,10.28,1.88,18.84,1.89,24.77,1.53,10.88-.66,27.63-1.67,41.85-13.34,5.72-4.69,9.36-9.74,11.51-13.21,2.85-2.03,6.84-5.31,10.47-10.21,17.06-23.06,7.01-56.41,4.34-68.68-5.67-26.05-3.09-63.44,39.99-126.42"/>
  <path class="cls-3" d="m601.8,449.96c9.2,16.38,13.12,30.6,14.98,40.85,3.61,19.91.66,31.73.68,61.96.01,18.21,1.09,33.17,2.04,43.23"/>
  <path class="cls-3" d="m736.27,612.68c3.3-8.59,6.68-19.74,8.51-33.02,2.39-17.34,1.3-32.18-.34-42.89"/>
  <path class="cls-3" d="m780.86,609.62c1.23-1.16,3.07-3.01,5.07-5.47,4.1-5.05,12.34-16.95,15.35-52.74.73-8.66,1.3-20.48.68-34.61"/>
  <path class="cls-3" d="m835.33,418.64c-16.67,22.53-22.91,42.3-25.53,56.17-3.69,19.52-.93,31.12-1.7,64.34-.52,22.45-2.33,40.67-3.74,52.43"/>
  <path class="cls-3" d="m558.13,576.25c.62,4.3,3.1,17.74,14.73,28.77,8.66,8.21,18.12,11.05,22.64,12.09"/>
  <path class="cls-3" d="m549.54,410.81c2.64,1.82,6.45,4.91,9.87,9.7,3.05,4.26,4.7,8.34,5.62,11.23"/>
  <path class="cls-3" d="m561.63,415.4c1.12.99,2.61,2.55,3.91,4.77,1.45,2.46,2.08,4.75,2.38,6.3"/>
  <path class="cls-3" d="m580.52,415.4c1.54.84,4.65,2.82,6.98,6.64,1.77,2.91,2.34,5.67,2.55,7.32"/>
  <path class="cls-3" d="m629.03,422.38c2.15,1.95,5.15,5.12,7.66,9.7,2.32,4.24,3.39,8.15,3.91,10.89"/>
  <path class="cls-3" d="m635.54,424.59c1.22,1.04,3.06,2.86,4.55,5.62,1.48,2.72,2,5.22,2.21,6.81"/>
  <line class="cls-3" x1="694.73" y1="437.7" x2="696.44" y2="424.59"/>
  <line class="cls-3" x1="698.48" y1="437.7" x2="700.01" y2="424.59"/>
  <path class="cls-3" d="m713.29,449.1c0-3.03.33-7.35,1.87-12.26,1.75-5.57,4.36-9.68,6.3-12.26"/>
  <path class="cls-3" d="m717.37,442.98c.54-2.86,1.5-6.45,3.23-10.38,1.93-4.37,4.21-7.77,6.13-10.21"/>
  <path class="cls-3" d="m755.33,434.98c.88-2.71,2.66-6.99,6.3-11.23,2.77-3.23,5.68-5.33,7.83-6.64"/>
  <path class="cls-3" d="m779.16,437.7c.66-2.86,1.77-6.47,3.74-10.38,2.46-4.87,5.36-8.47,7.66-10.89"/>
  <path class="cls-3" d="m784.86,433.79c.72-2.34,1.8-5.16,3.49-8.17,2.28-4.07,4.88-7.1,6.98-9.19"/>
  <path class="cls-3" d="m791.93,428.51c.43-1.57,1.18-3.69,2.55-5.96,1.54-2.54,3.29-4.31,4.6-5.45"/>
  <path class="cls-3" d="m803.5,474.3c-1.42,3.06-2.99,7.26-3.91,12.43-1.03,5.76-.89,10.72-.51,14.3"/>
  <path class="cls-3" d="m748.52,471.23c-2.52,5.88-5.33,14.15-6.64,24.34-1.52,11.82-.44,21.78.85,28.6"/>
  <path class="cls-3" d="m737.8,596.68c1.17-9.33,2.54-24.05,2.04-42.13-.77-27.93-5.3-38.75-3.32-58.98,1.06-10.84,4.23-26.72,14.3-45.62"/>
  <path class="cls-3" d="m730.14,596c1.63-7.56,3.04-16.24,3.83-25.87.74-8.98.8-17.21.51-24.51"/>
  <path class="cls-3" d="m835.33,427.06c4.75-5.82,12.03-14.88,20.68-26.21,17.8-23.33,21.49-27.89,31.15-36,5.84-4.91,22.29-14.16,37.53-7.66,13.61,5.81,18.05,21.13,18.89,24.26,1.42,6.29,6.17,30.63-7.4,56.43-13.35,25.38-35.57,35.31-41.62,37.79-.63,2.28-1.26,4.55-1.89,6.83-.76,2.75-3.51,4.46-6.3,3.88-4.42-.92-10.44-1.5-17.34-.24-6.85,1.26-12.05,3.88-15.32,5.87-14.97,6.96-19.9,14.74-21.57,20.68-3.32,11.8,4.34,22.96-2.5,33.18-2.35,3.51-5.49,5.54-7.61,6.65-2.2-13.32-4.4-26.63-6.6-39.95,1.85-8.01,5.2-12.89,7.81-15.8,6.77-7.56,14.29-8.38,34.38-17.53,2.42-1.1,4.62-2.14,6.57-3.08,3.7-1.79,7.47-3.4,11.3-4.89,9.05-3.53,22.73-10.5,34.9-24.03,11.11-12.35,16.37-25.07,18.89-32.82.9-3.97,1.85-9.96,1.36-17.22-.44-6.52-.95-14.14-4.6-17.87-3.45-3.53-10.2-4.08-18.66-1.86-13.53,3.55-24.88,12.67-31.91,24.76-3.87,6.66-7.67,12.07-10.87,16.25-13.42,17.53-21.5,20.22-25.19,21.11-4.1.98-7.68.91-10.06.69,1.99-4.4,3.98-8.8,5.97-13.2Z"/>
  <path class="cls-3" d="m523.07,599.49c-20.89,3.66-35.37,12.32-35.91,21.7-.09,1.64.22,3.61,1.44,5.93"/>
  <path class="cls-3" d="m491.67,620.93c1.77-2.51,4.78-6.1,9.45-9.19,7-4.64,13.9-5.62,17.36-5.87"/>
  <path class="cls-3" d="m500.1,639.15c8.21,10.06,16.25,15.46,22.21,18.55,0,0,2.28,1.18,19.4,8.43h0"/>
  <path class="cls-3" d="m512.1,639.13c1,1.81,2.74,4.43,5.62,6.82,4.47,3.72,9.17,4.84,11.49,5.23"/>
  <path class="cls-3" d="m826.28,660c4.96-1.72,12.07-4.87,19.26-10.72,5-4.07,8.62-8.29,11.14-11.74"/>
  <path class="cls-3" d="m817.22,668.18c15.18-3.58,25.79-9.37,32.91-14.3,0,0,4.71-3.26,25.53-21.89h0"/>
  <path class="cls-3" d="m846.45,567.57c4.77.77,10.94,2.22,17.73,5.11,6.97,2.96,12.4,6.49,16.31,9.45"/>
  <path class="cls-3" d="m898.9,591.57c.98.41,12.47,5.46,14.3,16.85.74,4.62-.4,8.5-1.28,10.72"/>
  <path class="cls-3" d="m858.99,486.38c2.83-1.39,7.6-3.28,13.79-3.74,5.7-.43,10.34.52,13.28,1.36"/>
  <path class="cls-3" d="m824.61,547.15c.71-.16,1.32-.42,1.84-.74,6.5-3.98,3.02-19.41,2.76-20.54"/>
  <path class="cls-1" d="m1350.19,8.42v131.06c-41.04,18.21-115.34,43.46-168.08,17.16-43.55-21.72-71.08-3.3-86.71,16.59-10.79,13.72-15.63,28.12-15.13,42.57.72,21.13-9.89,63.46-106.87,61.95-56.67-.88-97.06,9.08-124.53,20.52-30.06,12.53-44.13,30.21-39.76,47.9,3.29,13.31-3.74,19.17-10.48,22.07-3.73,1.6-7.34,2.57-10.03,3.19-39.95,9.1-100.92,3.02-110.38,10.98-1.96,1.65-2.68,4.71,6.55,10.74-15.25-3.75-18.61-7.05-18.92-9.35-.99-7.35,28.34-10.5,32.41-20.34,1.58-3.82-1.05-8.53-11.62-14.78-31.97-18.9-108.83-25.6-146.19-27.8-25.86-1.52-50.19-6.22-69.17-13.75-23.33-9.26-41.84-23.75-18.84-44.1,18.4-16.29,8.07-29.61-10.42-39.65-25.64-13.91-66.58-21.28-108.35-19.97-61.47,1.93-175.28.5-190.3-35.4-14.12-33.76-66.77-35.79-98.83-33.67-11.15.74-21.86,2.34-31.87,4.53-3.47.76-7.99,1.57-12.67,1.89V8.42h1350.19Z"/>
</svg>