<?xml version="1.0" encoding="UTF-8"?>
<svg id="Layer_1" data-name="Layer 1" xmlns="http://www.w3.org/2000/svg" xmlns:xlink="http://www.w3.org/1999/xlink" viewBox="0 0 1350.19 530.13">
  <defs>
    <style>
      .cls-1 {
        fill: #998674;
      }

      .cls-1, .cls-2, .cls-3, .cls-4, .cls-5, .cls-6, .cls-7, .cls-8, .cls-9, .cls-10, .cls-11 {
        stroke-width: 0px;
      }

      .cls-2 {
        fill: #3a7e3c;
      }

      .cls-3 {
        fill: #756e66;
      }

      .cls-4 {
        fill: #635c52;
      }

      .cls-5 {
        fill: #caaa89;
      }

      .cls-6 {
        fill: none;
      }

      .cls-7 {
        fill: #dfc4a1;
      }

      .cls-12 {
        clip-path: url(#clippath);
      }

      .cls-8 {
        fill: #699369;
      }

      .cls-9 {
        fill: #f4f1ea;
      }

      .cls-10 {
        fill: #3a7e3d;
      }

      .cls-11 {
        fill: #55ad57;
      }
    </style>
    <clipPath id="clippath">
      <rect class="cls-6" x="1188.31" y="0" width="147.66" height="259.95"/>
    </clipPath>
  </defs>
  <path class="cls-2" d="m0,196.4c47.55-3.99,286.19,29.35,496.27,113.06,127.59,50.83,184.38,114.94,207.32,146.18,29.62-25.78,69.11-55.01,121.53-84.37,6.14-3.44,11.54-6.76,16.63-10.03,33.04-21.23,71.42-40.01,114.65-55.36,23.38-8.3,50.24-16.68,81.81-24.13,138.68-32.71,268.75-41.25,311.99-34.88v282.66H0V196.4Z"/>
  <path class="cls-7" d="m.73,528.11V194.98c47.55-3.99,286.19,29.35,496.27,113.06,127.59,50.83,184.38,114.94,207.32,146.18"/>
  <path class="cls-8" d="m266.99,529.58c60.65-140.17,250.65-226.71,436.6-208.55,151.56,14.81,280.18,97.2,324.77,208.55H266.99Z"/>
  <path class="cls-11" d="m0,529.55v-182.59c52.73-2.13,172.13-2.5,299.16,38.7,72.19,23.42,123.33,52.63,156.98,76.11s78.45,42.99,127.87,54.08c33.39,7.49,73.59,13.21,119.58,13.7,51.27.54,95.94-5.57,132.52-13.81,50.15-11.29,94.63-30.41,129.27-55.28,30.36-21.8,78.62-50,148.75-71.67,100.5-31.06,192.78-32.3,236.05-31.21v171.97H0Z"/>
  <circle class="cls-9" cx="18.69" cy="355.79" r="2.68"/>
  <circle class="cls-9" cx="20.04" cy="365.04" r="1.34"/>
  <circle class="cls-9" cx="52.14" cy="356.55" r="1.91"/>
  <circle class="cls-9" cx="6.55" cy="376.9" r="1.77"/>
  <circle class="cls-9" cx="67.67" cy="367.16" r="2.12"/>
  <circle class="cls-9" cx="55.75" cy="380.51" r="3.61"/>
  <circle class="cls-9" cx="37.05" cy="379" r="1.51"/>
  <circle class="cls-9" cx="20.19" cy="384.22" r="1.5"/>
  <circle class="cls-9" cx="17.47" cy="405.52" r="2.68"/>
  <circle class="cls-9" cx="4.32" cy="409.99" r="1.79"/>
  <circle class="cls-9" cx="66.44" cy="416.9" r="2.12"/>
  <circle class="cls-9" cx="47.08" cy="418.81" r="1.91"/>
  <circle class="cls-9" cx="35.83" cy="428.73" r="1.51"/>
  <circle class="cls-9" cx="18.97" cy="433.96" r="1.5"/>
  <circle class="cls-9" cx="16.24" cy="455.73" r="2.68"/>
  <circle class="cls-9" cx="17.58" cy="464.99" r="1.34"/>
  <circle class="cls-9" cx="49.68" cy="456.5" r="1.91"/>
  <circle class="cls-9" cx="4.09" cy="476.85" r="1.77"/>
  <circle class="cls-9" cx="65.21" cy="467.11" r="2.12"/>
  <circle class="cls-9" cx="35.53" cy="480.19" r="1.47"/>
  <circle class="cls-9" cx="36.98" cy="493.47" r="2.92"/>
  <circle class="cls-9" cx="19.4" cy="502.66" r="2.61"/>
  <circle class="cls-9" cx="7.59" cy="523.2" r="1.72"/>
  <circle class="cls-9" cx="67.06" cy="513.73" r="2.07"/>
  <circle class="cls-9" cx="48.22" cy="515.59" r="1.86"/>
  <g>
    <circle class="cls-9" cx="137.21" cy="358.49" r="2.68"/>
    <circle class="cls-9" cx="135.87" cy="367.74" r="1.34"/>
    <circle class="cls-9" cx="103.77" cy="359.25" r="1.91"/>
    <circle class="cls-9" cx="149.36" cy="379.6" r="1.77"/>
    <circle class="cls-9" cx="88.24" cy="369.87" r="2.12"/>
    <circle class="cls-9" cx="100.16" cy="383.21" r="3.61"/>
    <circle class="cls-9" cx="118.85" cy="381.7" r="1.51"/>
    <circle class="cls-9" cx="135.71" cy="386.93" r="1.5"/>
    <circle class="cls-9" cx="138.44" cy="408.22" r="2.68"/>
    <circle class="cls-9" cx="151.59" cy="412.69" r="1.79"/>
    <circle class="cls-9" cx="89.47" cy="419.6" r="2.12"/>
    <circle class="cls-9" cx="108.82" cy="421.52" r="1.91"/>
    <circle class="cls-9" cx="120.08" cy="431.43" r="1.51"/>
    <circle class="cls-9" cx="136.94" cy="436.66" r="1.5"/>
    <circle class="cls-9" cx="139.67" cy="458.44" r="2.68"/>
    <circle class="cls-9" cx="138.33" cy="467.69" r="1.34"/>
    <circle class="cls-9" cx="106.22" cy="459.2" r="1.91"/>
    <circle class="cls-9" cx="151.81" cy="479.55" r="1.77"/>
    <circle class="cls-9" cx="90.7" cy="469.81" r="2.12"/>
    <circle class="cls-9" cx="120.38" cy="482.89" r="1.47"/>
    <circle class="cls-9" cx="118.93" cy="496.17" r="2.92"/>
    <circle class="cls-9" cx="136.5" cy="505.36" r="2.61"/>
    <circle class="cls-9" cx="148.32" cy="525.9" r="1.72"/>
    <circle class="cls-9" cx="88.85" cy="516.43" r="2.07"/>
    <circle class="cls-9" cx="107.69" cy="518.3" r="1.86"/>
  </g>
  <circle class="cls-9" cx="211.83" cy="367.74" r="1.34"/>
  <circle class="cls-9" cx="179.73" cy="359.25" r="1.91"/>
  <circle class="cls-9" cx="225.32" cy="379.6" r="1.77"/>
  <circle class="cls-9" cx="164.2" cy="369.87" r="2.12"/>
  <circle class="cls-9" cx="176.12" cy="383.21" r="3.61"/>
  <circle class="cls-9" cx="194.81" cy="381.7" r="1.51"/>
  <circle class="cls-9" cx="211.67" cy="386.93" r="1.5"/>
  <circle class="cls-9" cx="214.4" cy="408.22" r="2.68"/>
  <circle class="cls-9" cx="227.55" cy="412.69" r="1.79"/>
  <circle class="cls-9" cx="165.43" cy="419.6" r="2.12"/>
  <circle class="cls-9" cx="184.79" cy="421.52" r="1.91"/>
  <circle class="cls-9" cx="196.04" cy="431.43" r="1.51"/>
  <circle class="cls-9" cx="212.9" cy="436.66" r="1.5"/>
  <circle class="cls-9" cx="215.63" cy="458.44" r="2.68"/>
  <circle class="cls-9" cx="214.29" cy="467.69" r="1.34"/>
  <circle class="cls-9" cx="182.18" cy="459.2" r="1.91"/>
  <circle class="cls-9" cx="227.77" cy="479.55" r="1.77"/>
  <circle class="cls-9" cx="166.66" cy="469.81" r="2.12"/>
  <circle class="cls-9" cx="196.34" cy="482.89" r="1.47"/>
  <circle class="cls-9" cx="194.89" cy="496.17" r="2.92"/>
  <circle class="cls-9" cx="212.46" cy="505.36" r="2.61"/>
  <circle class="cls-9" cx="224.28" cy="525.9" r="1.72"/>
  <circle class="cls-9" cx="164.81" cy="516.43" r="2.07"/>
  <circle class="cls-9" cx="183.65" cy="518.3" r="1.86"/>
  <circle class="cls-9" cx="260.48" cy="389.04" r="2.68"/>
  <circle class="cls-9" cx="261.82" cy="398.3" r="1.34"/>
  <circle class="cls-9" cx="293.92" cy="389.81" r="1.91"/>
  <circle class="cls-9" cx="248.33" cy="410.15" r="1.77"/>
  <circle class="cls-9" cx="309.45" cy="400.42" r="2.12"/>
  <circle class="cls-9" cx="297.53" cy="413.76" r="3.61"/>
  <circle class="cls-9" cx="278.84" cy="412.25" r="1.51"/>
  <circle class="cls-9" cx="261.98" cy="417.48" r="1.5"/>
  <circle class="cls-9" cx="259.25" cy="438.78" r="2.68"/>
  <circle class="cls-9" cx="246.1" cy="443.24" r="1.79"/>
  <circle class="cls-9" cx="308.22" cy="450.15" r="2.12"/>
  <circle class="cls-9" cx="288.87" cy="452.07" r="1.91"/>
  <circle class="cls-9" cx="277.61" cy="461.99" r="1.51"/>
  <circle class="cls-9" cx="260.75" cy="467.21" r="1.5"/>
  <circle class="cls-9" cx="258.02" cy="488.99" r="2.68"/>
  <circle class="cls-9" cx="259.36" cy="498.24" r="1.34"/>
  <circle class="cls-9" cx="291.47" cy="489.75" r="1.91"/>
  <circle class="cls-9" cx="245.88" cy="510.1" r="1.77"/>
  <circle class="cls-9" cx="306.99" cy="500.37" r="2.12"/>
  <circle class="cls-9" cx="277.31" cy="513.44" r="1.47"/>
  <circle class="cls-9" cx="278.76" cy="526.72" r="2.92"/>
  <circle class="cls-9" cx="330.02" cy="403.12" r="2.12"/>
  <circle class="cls-9" cx="341.94" cy="416.46" r="3.61"/>
  <circle class="cls-9" cx="360.64" cy="414.95" r="1.51"/>
  <circle class="cls-9" cx="377.49" cy="420.18" r="1.5"/>
  <circle class="cls-9" cx="380.22" cy="441.48" r="2.68"/>
  <circle class="cls-9" cx="393.37" cy="445.94" r="1.79"/>
  <circle class="cls-9" cx="331.25" cy="452.85" r="2.12"/>
  <circle class="cls-9" cx="350.61" cy="454.77" r="1.91"/>
  <circle class="cls-9" cx="361.86" cy="464.69" r="1.51"/>
  <circle class="cls-9" cx="378.72" cy="469.91" r="1.5"/>
  <circle class="cls-9" cx="381.45" cy="491.69" r="2.68"/>
  <circle class="cls-9" cx="380.11" cy="500.95" r="1.34"/>
  <circle class="cls-9" cx="348.01" cy="492.46" r="1.91"/>
  <circle class="cls-9" cx="393.6" cy="512.8" r="1.77"/>
  <circle class="cls-9" cx="332.48" cy="503.07" r="2.12"/>
  <circle class="cls-9" cx="362.16" cy="516.14" r="1.47"/>
  <circle class="cls-9" cx="407.21" cy="452.85" r="2.12"/>
  <circle class="cls-9" cx="426.57" cy="454.77" r="1.91"/>
  <circle class="cls-9" cx="437.83" cy="464.69" r="1.51"/>
  <circle class="cls-9" cx="454.68" cy="469.91" r="1.5"/>
  <circle class="cls-9" cx="457.41" cy="491.69" r="2.68"/>
  <circle class="cls-9" cx="456.07" cy="500.95" r="1.34"/>
  <circle class="cls-9" cx="423.97" cy="492.46" r="1.91"/>
  <circle class="cls-9" cx="469.56" cy="512.8" r="1.77"/>
  <circle class="cls-9" cx="408.44" cy="503.07" r="2.12"/>
  <circle class="cls-9" cx="438.12" cy="516.14" r="1.47"/>
  <circle class="cls-9" cx="1338.31" cy="367.29" r="2.68"/>
  <circle class="cls-9" cx="1337.5" cy="376.61" r="1.34"/>
  <circle class="cls-9" cx="1304.96" cy="369.95" r="1.91"/>
  <circle class="cls-9" cx="1290.06" cy="381.43" r="2.12"/>
  <circle class="cls-9" cx="1302.72" cy="394.07" r="3.61"/>
  <circle class="cls-9" cx="1321.3" cy="391.5" r="1.51"/>
  <circle class="cls-9" cx="1338.42" cy="395.77" r="1.5"/>
  <circle class="cls-9" cx="1342.36" cy="416.87" r="2.68"/>
  <circle class="cls-9" cx="1294.11" cy="431.01" r="2.12"/>
  <circle class="cls-9" cx="1313.54" cy="431.83" r="1.91"/>
  <circle class="cls-9" cx="1325.35" cy="441.09" r="1.51"/>
  <circle class="cls-9" cx="1342.47" cy="445.35" r="1.5"/>
  <circle class="cls-9" cx="1346.44" cy="466.94" r="2.68"/>
  <circle class="cls-9" cx="1345.62" cy="476.25" r="1.34"/>
  <circle class="cls-9" cx="1313.09" cy="469.6" r="1.91"/>
  <circle class="cls-9" cx="1298.19" cy="481.08" r="2.12"/>
  <circle class="cls-9" cx="1328.56" cy="492.44" r="1.47"/>
  <circle class="cls-9" cx="1327.87" cy="505.79" r="2.92"/>
  <circle class="cls-9" cx="1345.94" cy="513.97" r="2.61"/>
  <circle class="cls-9" cx="1220.13" cy="376.72" r="2.68"/>
  <circle class="cls-9" cx="1222" cy="385.88" r="1.34"/>
  <circle class="cls-9" cx="1253.57" cy="375.58" r="1.91"/>
  <circle class="cls-9" cx="1209.21" cy="398.48" r="1.77"/>
  <circle class="cls-9" cx="1269.68" cy="385.29" r="2.12"/>
  <circle class="cls-9" cx="1258.53" cy="399.29" r="3.61"/>
  <circle class="cls-9" cx="1239.78" cy="398.85" r="1.51"/>
  <circle class="cls-9" cx="1223.25" cy="405.02" r="1.5"/>
  <circle class="cls-9" cx="1221.73" cy="426.44" r="2.68"/>
  <circle class="cls-9" cx="1208.86" cy="431.65" r="1.79"/>
  <circle class="cls-9" cx="1271.27" cy="435.02" r="2.12"/>
  <circle class="cls-9" cx="1252.06" cy="438.03" r="1.91"/>
  <circle class="cls-9" cx="1241.38" cy="448.57" r="1.51"/>
  <circle class="cls-9" cx="1224.84" cy="454.74" r="1.5"/>
  <circle class="cls-9" cx="1223.36" cy="476.64" r="2.68"/>
  <circle class="cls-9" cx="1225.22" cy="485.81" r="1.34"/>
  <circle class="cls-9" cx="1256.79" cy="475.51" r="1.91"/>
  <circle class="cls-9" cx="1212.43" cy="498.41" r="1.77"/>
  <circle class="cls-9" cx="1272.9" cy="485.22" r="2.12"/>
  <circle class="cls-9" cx="1244" cy="499.96" r="1.47"/>
  <circle class="cls-9" cx="1246.21" cy="513.14" r="2.92"/>
  <circle class="cls-9" cx="1229.18" cy="523.31" r="2.61"/>
  <circle class="cls-9" cx="1146.16" cy="390.19" r="1.34"/>
  <circle class="cls-9" cx="1177.73" cy="379.89" r="1.91"/>
  <circle class="cls-9" cx="1133.37" cy="402.8" r="1.77"/>
  <circle class="cls-9" cx="1193.84" cy="389.61" r="2.12"/>
  <circle class="cls-9" cx="1182.69" cy="403.6" r="3.61"/>
  <circle class="cls-9" cx="1163.94" cy="403.16" r="1.51"/>
  <circle class="cls-9" cx="1147.41" cy="409.33" r="1.5"/>
  <circle class="cls-9" cx="1145.89" cy="430.75" r="2.68"/>
  <circle class="cls-9" cx="1133.02" cy="435.96" r="1.79"/>
  <circle class="cls-9" cx="1195.43" cy="439.33" r="2.12"/>
  <circle class="cls-9" cx="1176.22" cy="442.34" r="1.91"/>
  <circle class="cls-9" cx="1165.54" cy="452.88" r="1.51"/>
  <circle class="cls-9" cx="1149" cy="459.06" r="1.5"/>
  <circle class="cls-9" cx="1147.52" cy="480.95" r="2.68"/>
  <circle class="cls-9" cx="1149.38" cy="490.12" r="1.34"/>
  <circle class="cls-9" cx="1180.95" cy="479.82" r="1.91"/>
  <circle class="cls-9" cx="1136.59" cy="502.72" r="1.77"/>
  <circle class="cls-9" cx="1197.06" cy="489.53" r="2.12"/>
  <circle class="cls-9" cx="1168.17" cy="504.27" r="1.47"/>
  <circle class="cls-9" cx="1170.37" cy="517.45" r="2.92"/>
  <circle class="cls-9" cx="1144.82" cy="524.35" r="2.61"/>
  <circle class="cls-9" cx="1098.8" cy="414.22" r="2.68"/>
  <circle class="cls-9" cx="1097.99" cy="423.53" r="1.34"/>
  <circle class="cls-9" cx="1065.45" cy="416.88" r="1.91"/>
  <circle class="cls-9" cx="1112.13" cy="434.61" r="1.77"/>
  <circle class="cls-9" cx="1050.55" cy="428.36" r="2.12"/>
  <circle class="cls-9" cx="1063.21" cy="441" r="3.61"/>
  <circle class="cls-9" cx="1081.79" cy="438.43" r="1.51"/>
  <circle class="cls-9" cx="1098.92" cy="442.69" r="1.5"/>
  <circle class="cls-9" cx="1102.85" cy="463.8" r="2.68"/>
  <circle class="cls-9" cx="1116.23" cy="467.52" r="1.79"/>
  <circle class="cls-9" cx="1054.61" cy="477.94" r="2.12"/>
  <circle class="cls-9" cx="1074.04" cy="478.75" r="1.91"/>
  <circle class="cls-9" cx="1085.84" cy="488.02" r="1.51"/>
  <circle class="cls-9" cx="1102.97" cy="492.28" r="1.5"/>
  <circle class="cls-9" cx="1106.93" cy="513.86" r="2.68"/>
  <circle class="cls-9" cx="1106.12" cy="523.18" r="1.34"/>
  <circle class="cls-9" cx="1073.58" cy="516.53" r="1.91"/>
  <circle class="cls-9" cx="1058.68" cy="528" r="2.12"/>
  <circle class="cls-9" cx="1030.17" cy="432.22" r="2.12"/>
  <circle class="cls-9" cx="1019.03" cy="446.22" r="3.61"/>
  <circle class="cls-9" cx="1000.28" cy="445.77" r="1.51"/>
  <circle class="cls-9" cx="983.74" cy="451.95" r="1.5"/>
  <circle class="cls-9" cx="982.23" cy="473.37" r="2.68"/>
  <circle class="cls-9" cx="969.35" cy="478.57" r="1.79"/>
  <circle class="cls-9" cx="1031.77" cy="481.95" r="2.12"/>
  <circle class="cls-9" cx="1012.55" cy="484.96" r="1.91"/>
  <circle class="cls-9" cx="1001.87" cy="495.5" r="1.51"/>
  <circle class="cls-9" cx="985.34" cy="501.67" r="1.5"/>
  <circle class="cls-9" cx="983.85" cy="523.57" r="2.68"/>
  <circle class="cls-9" cx="1292.18" cy="513.14" r="1.34"/>
  <circle class="cls-9" cx="1017.29" cy="522.43" r="1.91"/>
  <circle class="cls-9" cx="1277.14" cy="511.18" r="2.12"/>
  <circle class="cls-9" cx="955.93" cy="486.26" r="2.12"/>
  <circle class="cls-9" cx="936.71" cy="489.27" r="1.91"/>
  <circle class="cls-9" cx="926.04" cy="499.81" r="1.51"/>
  <circle class="cls-9" cx="909.5" cy="505.98" r="1.5"/>
  <circle class="cls-9" cx="909.5" cy="522.43" r="2.68"/>
  <circle class="cls-9" cx="941.45" cy="526.75" r="1.91"/>
  <circle class="cls-9" cx="870.55" cy="523.1" r="1.51"/>
  <circle class="cls-9" cx="888.14" cy="524.56" r="1.5"/>
  <circle class="cls-9" cx="895.14" cy="509.68" r="2.68"/>
  <circle class="cls-9" cx="874.4" cy="511.59" r="1.91"/>
  <circle class="cls-9" cx="861.06" cy="516.72" r="1.91"/>
  <circle class="cls-9" cx="847.93" cy="523.99" r="1.51"/>
  <circle class="cls-9" cx="830.34" cy="525.47" r="1.5"/>
  <circle class="cls-9" cx="581.39" cy="524.38" r="1.5"/>
  <circle class="cls-9" cx="603.34" cy="523.92" r="2.68"/>
  <circle class="cls-9" cx="612.4" cy="526.22" r="1.34"/>
  <circle class="cls-9" cx="548.85" cy="513.73" r="2.68"/>
  <circle class="cls-9" cx="535.08" cy="513.73" r="1.34"/>
  <circle class="cls-9" cx="548.56" cy="525.58" r="1.77"/>
  <circle class="cls-9" cx="563.4" cy="515.85" r="2.12"/>
  <circle class="cls-9" cx="477.41" cy="492.95" r="1.79"/>
  <circle class="cls-9" cx="490.65" cy="517.72" r="1.5"/>
  <circle class="cls-9" cx="510.97" cy="515.85" r="2.12"/>
  <path class="cls-3" d="m238.91,229.48c-25.29-6.18-52.22-11.97-80.68-17.06-33.18-5.93-64.77-10.26-94.47-13.37V67.91h175.15v161.57Z"/>
  <path class="cls-1" d="m414.06,279.17c-29.11-9.61-59.59-18.98-91.4-27.93-28.7-8.08-56.65-15.29-83.74-21.75V67.91h175.15v211.25Z"/>
  <rect class="cls-3" x="63.76" y="30.64" width="42.38" height="37.28"/>
  <polygon class="cls-1" points="127.59 67.91 106.14 67.91 106.14 30.64 127.25 36.43 127.59 67.91"/>
  <rect class="cls-3" x="196.52" y="32.26" width="42.38" height="37.28"/>
  <polygon class="cls-1" points="260.35 69.53 238.91 69.53 238.91 32.26 260.01 38.04 260.35 69.53"/>
  <rect class="cls-1" x="367.08" y="30.64" width="46.98" height="37.28"/>
  <path class="cls-3" d="m327.9,106.98h0c11.55,0,20.93,9.38,20.93,20.93v41.87h-41.87v-41.87c0-11.55,9.38-20.93,20.93-20.93Z"/>
  <path class="cls-5" d="m307.42,247.01c2.99,13.55,6.92,40-1.1,71.63-7.4,29.18-21.59,49.4-30.21,59.97,10.56,2.95,21.6,6.34,33.02,10.24,10.25,3.5,19.99,7.14,29.21,10.82,7.41-11.54,21.54-36.98,23.64-72.36,1.86-31.41-6.66-55.79-11.99-68.2-6.58-2-13.28-3.98-20.09-5.93-7.59-2.17-15.08-4.23-22.47-6.18Z"/>
  <path class="cls-5" d="m408.44,381.4c37.03-8.48,157.05-30.96,279.32,33.75,61.63,32.62,101.65,75.66,124.74,105.37,15.2-2.57,32.12-6.28,50.26-11.67,16.45-4.89,31.27-10.37,44.37-15.91-31.17-31.58-99.44-92.29-206.1-125.29-102.51-31.71-189.78-22.13-233.25-14.38-10.53,3.91-21.82,8.64-33.64,14.38-9.28,4.51-17.85,9.14-25.7,13.74Z"/>
  <g class="cls-12">
    <path class="cls-4" d="m1278.14,259.95c-19.38-.16-38.77-.32-58.15-.48,6.67-21.64,13.04-47.91,16.88-78.12,4.13-32.44,4.31-61.3,2.95-85.1h19.3c-2.41,22.4-3.48,51.32.54,84.57,3.83,31.76,11.22,58.51,18.49,79.13"/>
    <path class="cls-10" d="m1188.31,60.75c0,33.55,27.2,60.75,60.75,60.75s60.75-27.2,60.75-60.75c0-33.55-27.2-60.75-60.75-60.75s-60.75,27.2-60.75,60.75"/>
    <path class="cls-4" d="m1281.39,258.46c2.18.02,4.37-.09,6.55.06,8.63.59,18.39,1.97,26.25-2.43-3.32-10.88-6.92-30.72-8.71-45.43-2.43-20.22-1.78-37.78-.32-51.39h-11.73c.84,14.47.72,31.99-1.78,51.71-2.34,18.36-6.21,34.32-10.25,47.48"/>
    <path class="cls-11" d="m1262.13,137.68c0,20.39,16.53,36.92,36.92,36.92,20.39,0,36.92-16.53,36.92-36.92,0-20.39-16.53-36.92-36.92-36.92-20.39,0-36.92,16.53-36.92,36.92"/>
  </g>
</svg>