<?xml version="1.0" encoding="UTF-8"?>
<svg id="Layer_1" data-name="Layer 1" xmlns="http://www.w3.org/2000/svg" xmlns:xlink="http://www.w3.org/1999/xlink" viewBox="0 0 1350.19 226.97">
  <defs>
    <style>
      .cls-1 {
        fill: #664c4c;
      }

      .cls-1, .cls-2, .cls-3, .cls-4, .cls-5, .cls-6, .cls-7, .cls-8, .cls-9, .cls-10, .cls-11, .cls-12, .cls-13, .cls-14, .cls-15, .cls-16, .cls-17, .cls-18, .cls-19, .cls-20, .cls-21, .cls-22, .cls-23, .cls-24, .cls-25 {
        stroke-width: 0px;
      }

      .cls-2 {
        fill: #964243;
      }

      .cls-3 {
        fill: #e5d8ba;
      }

      .cls-4 {
        fill: #615252;
      }

      .cls-5 {
        fill: #b77674;
      }

      .cls-6 {
        fill: #aac6e0;
      }

      .cls-26, .cls-27 {
        stroke: #000;
      }

      .cls-26, .cls-27, .cls-14, .cls-28 {
        fill: none;
      }

      .cls-26, .cls-27, .cls-28 {
        stroke-miterlimit: 10;
      }

      .cls-7 {
        fill: #edbed9;
      }

      .cls-8 {
        fill: #5f493f;
      }

      .cls-9 {
        fill: #63533c;
      }

      .cls-10 {
        fill: #75674a;
      }

      .cls-29 {
        clip-path: url(#clippath-2);
      }

      .cls-11 {
        fill: #3f3a2f;
      }

      .cls-12 {
        fill: #89ac85;
      }

      .cls-13 {
        fill: #635c52;
      }

      .cls-27 {
        stroke-width: .75px;
      }

      .cls-30 {
        clip-path: url(#clippath-1);
      }

      .cls-31 {
        clip-path: url(#clippath-4);
      }

      .cls-28 {
        stroke: #44351e;
        stroke-width: .25px;
      }

      .cls-15 {
        fill: #858daf;
      }

      .cls-16 {
        fill: #7e7e89;
      }

      .cls-17 {
        fill: #607c56;
      }

      .cls-32 {
        clip-path: url(#clippath);
      }

      .cls-18 {
        fill: #7994a5;
      }

      .cls-19 {
        fill: #eae8da;
      }

      .cls-33 {
        clip-path: url(#clippath-3);
      }

      .cls-20 {
        fill: #9b697a;
      }

      .cls-21 {
        fill: #8c8883;
      }

      .cls-22 {
        fill: #edd99f;
      }

      .cls-34 {
        clip-path: url(#clippath-5);
      }

      .cls-23 {
        fill: #ffe284;
      }

      .cls-24 {
        fill: #3a7e3d;
      }

      .cls-25 {
        fill: #55ad57;
      }
    </style>
    <clipPath id="clippath">
      <rect class="cls-14" x="64.63" y="56.35" width="27.87" height="26.39"/>
    </clipPath>
    <clipPath id="clippath-1">
      <rect class="cls-14" x="469.06" y="52.27" width="25.27" height="30.56"/>
    </clipPath>
    <clipPath id="clippath-2">
      <rect class="cls-14" x="1222.9" y="55.23" width="25.94" height="23.53"/>
    </clipPath>
    <clipPath id="clippath-3">
      <rect class="cls-14" x="833.71" y="50.03" width="25.51" height="25.56"/>
    </clipPath>
    <clipPath id="clippath-4">
      <rect class="cls-14" x="680.98" y="48.12" width="23.17" height="24.71"/>
    </clipPath>
    <clipPath id="clippath-5">
      <rect class="cls-14" x="680.98" y="48.12" width="23.17" height="24.71"/>
    </clipPath>
  </defs>
  <g>
    <path class="cls-13" d="m18.87,166.24c10.21-.08,20.42-.17,30.63-.25-3.51-11.4-6.87-25.24-8.89-41.15-2.17-17.09-2.27-32.29-1.55-44.83h-10.17c1.27,11.8,1.83,27.03-.28,44.54-2.02,16.73-5.91,30.82-9.74,41.68"/>
    <path class="cls-24" d="m66.18,61.31c0,17.67-14.33,32-32,32S2.18,78.99,2.18,61.31,16.51,29.31,34.18,29.31s32,14.33,32,32"/>
  </g>
  <circle class="cls-23" cx="78.65" cy="67.55" r="18.77"/>
  <rect class="cls-13" y="165.69" width="1350.19" height="61.27"/>
  <rect class="cls-15" x="50.48" y="121.27" width="56.17" height="44.43"/>
  <polygon class="cls-2" points="36.1 121.95 121.04 121.95 80.39 89.27 36.1 121.95"/>
  <path class="cls-9" d="m78.35,138.37h0c3.55,0,6.43,2.88,6.43,6.43v20.89h-12.85v-20.89c0-3.55,2.88-6.43,6.43-6.43Z"/>
  <circle class="cls-21" cx="83.04" cy="155.03" r=".83"/>
  <g>
    <g>
      <rect class="cls-3" x="166.4" y="71.74" width="132.77" height="93.96"/>
      <rect class="cls-3" x="299.16" y="110.03" width="33.7" height="55.66"/>
    </g>
    <polygon class="cls-4" points="140.18 71.74 325.38 71.74 236.76 21.69 140.18 71.74"/>
    <polygon class="cls-4" points="299.16 86.54 345.63 110.03 299.16 110.03 299.16 86.54"/>
    <rect class="cls-9" x="211.97" y="127.52" width="15.96" height="38.17"/>
    <rect class="cls-9" x="227.93" y="127.52" width="15.96" height="38.17"/>
    <line class="cls-28" x1="227.93" y1="165.69" x2="227.93" y2="127.52"/>
    <circle class="cls-3" cx="230.38" cy="147.12" r="1"/>
    <circle class="cls-3" cx="225.41" cy="147.12" r="1"/>
  </g>
  <g>
    <g>
      <g>
        <rect class="cls-5" x="1054.95" y="71.75" width="132.77" height="93.96" transform="translate(2242.66 237.45) rotate(-180)"/>
        <rect class="cls-5" x="1021.24" y="110.04" width="33.7" height="55.66" transform="translate(2076.19 275.75) rotate(-180)"/>
      </g>
      <polygon class="cls-11" points="1213.92 71.75 1028.73 71.75 1117.35 21.7 1213.92 71.75"/>
      <polygon class="cls-11" points="1054.95 86.55 1008.48 110.04 1054.95 110.04 1054.95 86.55"/>
      <rect class="cls-9" x="1126.18" y="127.53" width="15.96" height="38.17" transform="translate(2268.32 293.23) rotate(-180)"/>
      <rect class="cls-9" x="1110.22" y="127.53" width="15.96" height="38.17" transform="translate(2236.4 293.23) rotate(-180)"/>
      <circle class="cls-3" cx="1123.73" cy="147.13" r="1"/>
      <circle class="cls-3" cx="1128.7" cy="147.13" r="1"/>
    </g>
    <line class="cls-28" x1="1126.18" y1="165.7" x2="1126.18" y2="127.53"/>
  </g>
  <g>
    <path class="cls-13" d="m17.79,177.17c-1.15.01-2.3.02-3.45.03-4.83-.9-9.38-2.58-13.52-4.9,1.75-5.73,3.34-12.56,4.28-20.31,1.28-10.65.94-19.9.17-27.07h6.18c-.44,7.62-.38,16.85.94,27.24,1.23,9.67,3.27,18.08,5.4,25.01h0Z"/>
    <path class="cls-25" d="m27.93,113.56c0,9.82-7.28,17.93-16.73,19.25-.89.13-1.8.19-2.72.19s-1.77-.06-2.63-.18c-2.07-.28-4.04-.88-5.85-1.77v-34.99c2.56-1.25,5.44-1.95,8.48-1.95,10.74,0,19.45,8.71,19.45,19.45Z"/>
  </g>
  <rect class="cls-16" x="361.46" y="103.05" width="61.11" height="62.64"/>
  <rect class="cls-16" x="361.46" y="40.42" width="61.11" height="62.64"/>
  <polygon class="cls-8" points="342.04 40.42 441.99 40.42 424.84 12.63 361.69 12.63 342.04 40.42"/>
  <rect class="cls-8" x="417.67" y=".03" width="7.23" height="14.47"/>
  <path class="cls-9" d="m392.01,137.82h0c3.55,0,6.43,2.88,6.43,6.43v20.89h-12.85v-20.89c0-3.55,2.88-6.43,6.43-6.43Z"/>
  <circle class="cls-21" cx="396.69" cy="154.48" r=".83"/>
  <g>
    <path class="cls-13" d="m419.61,166.76c10.21-.08,20.42-.17,30.63-.25-3.51-11.4-6.87-25.24-8.89-41.15-2.17-17.09-2.27-32.29-1.55-44.83h-10.17c1.27,11.8,1.83,27.03-.28,44.54-2.02,16.73-5.91,30.82-9.74,41.68"/>
    <path class="cls-24" d="m466.93,61.83c0,17.67-14.33,32-32,32s-32-14.33-32-32,14.33-32,32-32,32,14.33,32,32"/>
  </g>
  <rect class="cls-12" x="449.97" y="121.27" width="56.17" height="44.43"/>
  <polygon class="cls-18" points="435.59 121.95 520.52 121.95 479.88 89.27 435.59 121.95"/>
  <path class="cls-9" d="m477.84,138.37h0c3.55,0,6.43,2.88,6.43,6.43v20.89h-12.85v-20.89c0-3.55,2.88-6.43,6.43-6.43Z"/>
  <circle class="cls-21" cx="482.52" cy="155.03" r=".83"/>
  <g class="cls-32">
    <path class="cls-26" d="m72.38,75.89c.97.41,2.12.99,3.34,1.82,1.16.79,2.09,1.6,2.81,2.31.73-.74,1.67-1.59,2.84-2.41,1.2-.84,2.34-1.45,3.31-1.89"/>
    <path class="cls-26" d="m67.52,73.15c.91-.24,2.39-.52,4.2-.36,1.77.15,3.51.3,4.24,1.57.73,1.27-.01,2.91-.24,3.36-.37.63-1.35,2.07-2.74,2.15-1.87.11-3.3-2.29-4.17-3.74-.71-1.19-1.09-2.28-1.29-2.98Z"/>
    <path class="cls-26" d="m89.62,73.15c-.91-.24-2.39-.52-4.2-.36-1.77.15-3.51.3-4.24,1.57-.73,1.27.01,2.91.24,3.36.37.63,1.35,2.07,2.74,2.15,1.87.11,3.3-2.29,4.17-3.74.71-1.19,1.09-2.28,1.29-2.98Z"/>
    <path class="cls-26" d="m78.53,82.74v-10.42c.26-.04,1.06-.19,1.74-.88.76-.78.85-1.71.86-1.95h-5.23c.01.23.09,1.24.93,2.03.67.63,1.43.76,1.7.79"/>
    <line class="cls-26" x1="64.63" y1="62.48" x2="69.57" y2="62.48"/>
    <line class="cls-26" x1="67.78" y1="68.65" x2="70.76" y2="66.12"/>
    <line class="cls-26" x1="67.52" y1="56.5" x2="70.76" y2="59.15"/>
    <line class="cls-26" x1="92.5" y1="62.75" x2="87.56" y2="62.75"/>
    <line class="cls-26" x1="89.35" y1="68.93" x2="86.37" y2="66.4"/>
    <line class="cls-26" x1="89.61" y1="56.77" x2="86.37" y2="59.43"/>
    <path class="cls-26" d="m76.04,65.44c.13-.59.59-1.04,1.17-1.16.56-.11,1.14.12,1.49.58v4.63"/>
    <path class="cls-26" d="m81.13,65.44c-.04-.52-.35-.98-.81-1.16-.57-.22-1.26,0-1.62.58"/>
    <path class="cls-26" d="m76.6,69.49c-.07-.51-.26-1.22-.78-1.84-.43-.51-.9-.72-1.09-.83-1.35-.74-2.68-3.53-1.89-6.09.76-2.42,3.2-3.9,5.59-3.9,2.61,0,5.1,1.75,5.75,4.3.55,2.12-.23,4.58-1.49,5.46-.2.14-.56.35-.96.79-.62.71-.88,1.52-.99,2.1"/>
  </g>
  <circle class="cls-23" cx="481.69" cy="67.55" r="18.77"/>
  <g class="cls-30">
    <path class="cls-27" d="m477.47,78.65c2.85-.22,5.97-.59,9.01-.62.29,0,.58,0,.87,0,.53,0,1.04-.22,1.4-.62l5.37-5.83c.21-.71-.02-1.47-.58-1.94-.51-.42-1.22-.53-1.84-.29-1.1,1.14-2.2,2.27-3.31,3.41-3.48-.96-11.68-2.83-14.7.95-.1.13-.66.64-.75.78,1.41,1.44,3.11,2.72,4.52,4.16Z"/>
    <path class="cls-27" d="m481.74,75.4c1.11.08,2.38.1,3.77,0,.8-.06,1.55-.16,2.25-.27.86-.13,1.41-.81,1.34-1.43-.06-.58-.64-.9-.71-.94"/>
    <path class="cls-27" d="m478.61,79.74c-.14-.13-6.54-6.11-6.54-6.11l-2.81,3.06,6.69,5.95,2.67-2.9Z"/>
    <path class="cls-27" d="m489.6,62.14c0,3.5-2.84,6.34-6.34,6.34s-6.34-2.84-6.34-6.34,2.84-6.34,6.34-6.34,6.34,2.84,6.34,6.34Z"/>
    <circle class="cls-27" cx="483.26" cy="62.14" r="3.36"/>
    <path class="cls-27" d="m485.73,56.3c1.66-.43,1.95-1.03,2.02-1.32.05-.21,0-.34-.14-1.47-.05-.42-.09-.77-.12-1-.2.13-.49.32-.84.56-.64.45-.97.67-1.09.84-.11.15-.54.8.17,2.39Z"/>
    <line class="cls-27" x1="483.26" y1="58.78" x2="483.26" y2="65.5"/>
    <line class="cls-27" x1="479.9" y1="62.14" x2="486.62" y2="62.14"/>
    <line class="cls-27" x1="480.93" y1="59.72" x2="485.68" y2="64.47"/>
    <line class="cls-27" x1="480.93" y1="64.61" x2="485.67" y2="59.87"/>
  </g>
  <g>
    <rect class="cls-22" x="1210.46" y="121.32" width="56.17" height="44.43" transform="translate(2477.09 287.06) rotate(-180)"/>
    <polygon class="cls-20" points="1281.01 122 1196.08 122 1236.72 89.32 1281.01 122"/>
    <path class="cls-9" d="m1232.33,138.43h12.85v20.89c0,3.55-2.88,6.43-6.43,6.43h0c-3.55,0-6.43-2.88-6.43-6.43v-20.89h0Z" transform="translate(2477.52 304.17) rotate(180)"/>
    <circle class="cls-21" cx="1234.08" cy="155.09" r=".83"/>
  </g>
  <circle class="cls-23" cx="1235.87" cy="64.86" r="18.77"/>
  <g class="cls-29">
    <path class="cls-27" d="m1230.69,72.51c-.42-.89-.35-1.43-.19-1.76.35-.74,1.25-.72,2.25-1.67.46-.44.74-.89.92-1.22"/>
    <path class="cls-27" d="m1235.71,62.67c.36.74.91,2.17.8,3.97-.08,1.18-.17,2.62-1.27,3.43-1.03.75-2.57.69-3.96-.02-.87-1.16-.89-1.88-.74-2.33.4-1.22,2.27-1.11,3.83-2.75.76-.79,1.14-1.68,1.34-2.3Z"/>
    <circle class="cls-27" cx="1240.34" cy="61.17" r="2.63"/>
    <path class="cls-27" d="m1241.74,58.95c-1.01,1.08-1.38,2.51-.92,3.65.71,1.74,3.04,1.95,4.32,1.74,1.44-.24,3.62-1.34,3.55-3.08-.05-1.16-1.1-2.26-2.56-2.73"/>
    <path class="cls-27" d="m1246.04,58.79v6.15c0,.97-.39,1.9-1.07,2.59l-10.53,10.53c-.77.77-2.01.77-2.77,0l-7.89-7.89c-1-1-1-2.62,0-3.62l10.05-10.05c.72-.72,1.7-1.12,2.72-1.12h6.36c.59,0,1.16.24,1.57.66l.75.76c.52.53.81,1.25.81,1.99Z"/>
  </g>
  <rect class="cls-7" x="669.08" y="121.32" width="56.17" height="44.43" transform="translate(1394.33 287.06) rotate(-180)"/>
  <polygon class="cls-19" points="739.63 122 654.69 122 695.34 89.32 739.63 122"/>
  <path class="cls-9" d="m690.95,138.43h12.85v20.89c0,3.55-2.88,6.43-6.43,6.43h0c-3.55,0-6.43-2.88-6.43-6.43v-20.89h0Z" transform="translate(1394.75 304.17) rotate(-180)"/>
  <circle class="cls-21" cx="692.69" cy="155.09" r=".83"/>
  <rect class="cls-6" x="817.21" y="121.32" width="56.17" height="44.43" transform="translate(1690.58 287.06) rotate(-180)"/>
  <polygon class="cls-17" points="887.76 122 802.82 122 843.47 89.32 887.76 122"/>
  <path class="cls-9" d="m839.08,138.43h12.85v20.89c0,3.55-2.88,6.43-6.43,6.43h0c-3.55,0-6.43-2.88-6.43-6.43v-20.89h0Z" transform="translate(1691.01 304.17) rotate(-180)"/>
  <circle class="cls-21" cx="840.82" cy="155.09" r=".83"/>
  <rect class="cls-16" x="726.76" y="103.02" width="61.11" height="62.64"/>
  <rect class="cls-16" x="726.76" y="40.38" width="61.11" height="62.64"/>
  <polygon class="cls-8" points="707.33 40.38 807.29 40.38 790.14 12.6 726.99 12.6 707.33 40.38"/>
  <rect class="cls-8" x="782.97" width="7.23" height="14.47"/>
  <path class="cls-9" d="m757.31,137.79h0c3.55,0,6.43,2.88,6.43,6.43v20.89h-12.85v-20.89c0-3.55,2.88-6.43,6.43-6.43Z"/>
  <circle class="cls-21" cx="761.99" cy="154.45" r=".83"/>
  <g>
    <path class="cls-13" d="m785.17,169.78c5.55-.05,11.11-.09,16.66-.14-1.91-6.2-3.73-13.73-4.84-22.38-1.18-9.29-1.24-17.56-.84-24.38h-5.53c.69,6.42,1,14.7-.15,24.23-1.1,9.1-3.21,16.76-5.3,22.67"/>
    <path class="cls-24" d="m810.91,112.71c0,9.61-7.79,17.4-17.4,17.4s-17.4-7.79-17.4-17.4,7.79-17.4,17.4-17.4,17.4,7.79,17.4,17.4"/>
  </g>
  <circle class="cls-24" cx="804.84" cy="161.29" r="6.02"/>
  <circle class="cls-24" cx="812.31" cy="161.29" r="6.02"/>
  <circle class="cls-24" cx="819.97" cy="161.29" r="6.02"/>
  <circle class="cls-23" cx="845.5" cy="61.83" r="18.77"/>
  <circle class="cls-23" cx="693.31" cy="61.83" r="18.77"/>
  <g class="cls-33">
    <path class="cls-27" d="m839.07,55.49c1.32.6,4.21,2.15,6.15,5.44.85,1.43,1.28,2.8,1.51,3.87"/>
    <path class="cls-27" d="m833.88,50.2c1.07.01,2.64.11,4.47.55,2.72.64,4.79,1.14,5.77,2.85,1.18,2.09,0,4.72-.31,5.38-.4.36-3.37,3-5.84,2.08-2.21-.82-2.92-4.06-3.6-7.11-.34-1.55-.45-2.87-.49-3.76Z"/>
    <path class="cls-27" d="m859.05,51.97c-1.07.01-2.64.11-4.47.55-2.72.64-4.79,1.14-5.77,2.85-1.18,2.09,0,4.72.31,5.38.4.36,3.37,3,5.84,2.08,2.21-.82,2.92-4.06,3.6-7.11.34-1.55.45-2.87.49-3.76Z"/>
    <path class="cls-27" d="m853.67,57.5c-.89.33-4.3,1.69-6.18,5.35-1.11,2.16-1.21,4.18-1.18,5.27.85.04,3.34.26,5.68,2.13,2.41,1.91,3.17,4.37,3.39,5.18h-18.28c.16-.73.88-3.54,3.61-5.53,2.35-1.71,4.79-1.79,5.61-1.78"/>
  </g>
  <g class="cls-31">
    <rect class="cls-27" x="682.34" y="60.54" width="4.89" height="12.16"/>
    <rect class="cls-27" x="681.11" y="57.59" width="7.19" height="2.95"/>
    <polygon class="cls-27" points="687.22 64.48 692.84 60.45 692.84 64.78 698.44 60.54 698.44 64.78 704.03 60.45 704.03 72.7 687.22 72.7 687.22 64.48"/>
  </g>
  <rect class="cls-27" x="689.33" y="66.78" width="2.97" height="2.88"/>
  <rect class="cls-27" x="694.14" y="66.78" width="2.97" height="2.88"/>
  <rect class="cls-27" x="698.81" y="66.78" width="2.97" height="2.88"/>
  <g class="cls-34">
    <path class="cls-27" d="m687.96,53.69c-.67.86-1.34,1.24-1.82,1.43-.49.2-.8.2-1.08.49-.47.49-.36,1.35-.2,1.98"/>
    <path class="cls-27" d="m689.83,48.41c.31.5.72,1.31.92,2.37.14.74.66,3.58-1.12,4.88-1.16.85-2.95.77-4.49-.11-.57-1.05-.51-1.73-.36-2.15.47-1.32,2.3-1.26,3.85-2.96.66-.73,1.01-1.49,1.2-2.02Z"/>
  </g>
  <rect class="cls-1" x="535.87" y="92.67" width="103.47" height="73.23" transform="translate(1175.22 258.56) rotate(-180)"/>
  <polygon class="cls-10" points="659.77 92.67 515.45 92.67 584.51 53.66 659.77 92.67"/>
  <rect class="cls-9" x="591.39" y="136.14" width="12.44" height="29.75" transform="translate(1195.22 302.03) rotate(-180)"/>
  <rect class="cls-9" x="578.95" y="136.14" width="12.44" height="29.75" transform="translate(1170.34 302.03) rotate(-180)"/>
  <circle class="cls-3" cx="589.48" cy="151.41" r=".78"/>
  <circle class="cls-3" cx="593.36" cy="151.41" r=".78"/>
  <line class="cls-28" x1="591.39" y1="165.89" x2="591.39" y2="136.14"/>
  <g>
    <path class="cls-13" d="m964.59,171.49c10.21-.08,20.42-.17,30.63-.25-3.51-11.4-6.87-25.24-8.89-41.15-2.17-17.09-2.27-32.29-1.55-44.83h-10.17c1.27,11.8,1.83,27.03-.28,44.54-2.02,16.73-5.91,30.82-9.74,41.68"/>
    <path class="cls-24" d="m1011.91,66.56c0,17.67-14.33,32-32,32s-32-14.33-32-32,14.33-32,32-32,32,14.33,32,32"/>
  </g>
  <g>
    <path class="cls-13" d="m942.28,167.23c5.1-.04,10.21-.08,15.32-.13-1.76-5.7-3.43-12.62-4.45-20.57-1.09-8.54-1.14-16.15-.78-22.41h-5.08c.64,5.9.92,13.51-.14,22.27-1.01,8.37-2.95,15.41-4.87,20.84"/>
    <path class="cls-24" d="m965.94,114.76c0,8.84-7.16,16-16,16s-16-7.16-16-16,7.16-16,16-16,16,7.16,16,16"/>
  </g>
  <circle class="cls-24" cx="711.23" cy="162.85" r="6.02"/>
  <circle class="cls-24" cx="718.71" cy="162.85" r="6.02"/>
  <circle class="cls-24" cx="726.37" cy="162.85" r="6.02"/>
  <circle class="cls-24" cx="450.27" cy="163.14" r="6.02"/>
  <circle class="cls-24" cx="457.74" cy="163.14" r="6.02"/>
  <circle class="cls-24" cx="465.4" cy="163.14" r="6.02"/>
  <circle class="cls-24" cx="107.13" cy="163.2" r="6.02"/>
  <circle class="cls-24" cx="114.6" cy="163.2" r="6.02"/>
  <circle class="cls-24" cx="122.26" cy="163.2" r="6.02"/>
  <circle class="cls-24" cx="123" cy="161.05" r="6.02"/>
  <circle class="cls-24" cx="130.47" cy="161.05" r="6.02"/>
  <circle class="cls-24" cx="138.13" cy="161.05" r="6.02"/>
  <circle class="cls-24" cx="146.2" cy="163.2" r="6.02"/>
  <circle class="cls-24" cx="153.67" cy="163.2" r="6.02"/>
  <circle class="cls-24" cx="161.33" cy="163.2" r="6.02"/>
  <circle class="cls-24" cx="140.09" cy="155.03" r="6.02"/>
  <circle class="cls-24" cx="147.56" cy="155.03" r="6.02"/>
  <circle class="cls-24" cx="155.22" cy="155.03" r="6.02"/>
  <circle class="cls-24" cx="115.85" cy="154.2" r="6.02"/>
  <circle class="cls-24" cx="123.32" cy="154.2" r="6.02"/>
  <circle class="cls-24" cx="130.98" cy="154.2" r="6.02"/>
  <circle class="cls-24" cx="127.97" cy="148.19" r="6.02"/>
  <circle class="cls-24" cx="135.44" cy="148.19" r="6.02"/>
  <circle class="cls-24" cx="143.1" cy="148.19" r="6.02"/>
  <circle class="cls-24" cx="260" cy="163.2" r="6.02"/>
  <circle class="cls-24" cx="267.48" cy="163.2" r="6.02"/>
  <circle class="cls-24" cx="275.14" cy="163.2" r="6.02"/>
  <circle class="cls-24" cx="283.68" cy="163.2" r="6.02"/>
  <circle class="cls-24" cx="291.15" cy="163.2" r="6.02"/>
  <circle class="cls-24" cx="298.81" cy="163.2" r="6.02"/>
</svg>